<?xml version="1.0" encoding="utf-8"?>
<!-- Generator: Adobe Illustrator 26.0.3, SVG Export Plug-In . SVG Version: 6.00 Build 0)  -->
<svg version="1.1" id="Calque_1" xmlns="http://www.w3.org/2000/svg" xmlns:xlink="http://www.w3.org/1999/xlink" x="0px" y="0px"
	 viewBox="0 0 32 32" style="enable-background:new 0 0 32 32;" xml:space="preserve">
<style type="text/css">
	.st0{fill:#020203;}
</style>
<path class="st0" d="M-163.4,224.23c0.5,2.19,0.5,2.19,0.85,5.07c0.13,1.04,0.26,2.09,0.39,3.16c0.13,1.1,0.25,2.2,0.38,3.33
	c0.2,1.61,0.2,1.61,0.41,3.25c0.69,5.76,1.23,11.38,0.97,17.19c-2.15,2.15-6.65,1.83-9.63,2.19c-0.86,0.11-1.73,0.22-2.62,0.33
	c-2.77,0.35-5.54,0.69-8.31,1.04c-1.87,0.24-3.75,0.47-5.62,0.71c-4.6,0.58-9.21,1.16-13.81,1.73c0.55,0.3,1.1,0.59,1.67,0.9
	c10.99,5.91,21.9,11.94,32.64,18.29c0.95,0.56,1.91,1.13,2.89,1.71c6.66,3.96,6.66,3.96,7.8,5.1c0.3,1.89,0.59,3.79,0.77,5.7
	c0.19,2.29,0.19,2.29,0.64,4.48c0.5,4.05,0.16,6.07-2.36,9.37c-2.59,2.62-5.26,5.05-8.05,7.45c-0.69,0.61-1.38,1.21-2.09,1.84
	c-1.28,1.11-2.56,2.22-3.84,3.32c-3.34,2.99-6.44,6.21-9.59,9.4c-3.36,3.31-6.88,6.39-10.48,9.45c9.13-0.64,18.22-1.52,27.31-2.56
	c1.23-0.14,2.46-0.28,3.72-0.42c2.99-0.34,5.98-0.68,8.96-1.02c1.27,6.05,2.36,12.06,3.12,18.19c0.09,0.66,0.17,1.32,0.26,2
	c0.53,4.29,0.78,8.49,0.61,12.81c-1.92,1.92-5.38,1.64-8.01,1.94c-0.73,0.09-1.47,0.18-2.22,0.27c-2.44,0.29-4.88,0.58-7.31,0.86
	c-1.69,0.2-3.38,0.4-5.07,0.6c-3.55,0.42-7.1,0.84-10.65,1.25c-4.55,0.53-9.1,1.07-13.64,1.61c-3.49,0.41-6.99,0.83-10.49,1.24
	c-1.68,0.2-3.35,0.4-5.03,0.59c-2.35,0.28-4.7,0.55-7.04,0.83c-0.69,0.08-1.38,0.17-2.09,0.25c-3.5,0.4-6.91,0.65-10.43,0.56
	c-1.58-7.34-2.71-14.68-3.62-22.12c-0.13-1.03-0.27-2.07-0.41-3.13c-0.13-1.01-0.25-2.02-0.38-3.07c-0.11-0.9-0.23-1.8-0.34-2.73
	c-0.08-0.97-0.16-1.95-0.24-2.95c-0.17-1.27-0.33-2.54-0.5-3.85c0.06-4.73,2.44-6.98,5.69-10.19c0.74-0.7,1.49-1.39,2.25-2.11
	c0.75-0.74,1.51-1.48,2.29-2.24c2.41-2.35,4.84-4.67,7.28-6.99c2.43-2.35,4.86-4.7,7.28-7.05c1.51-1.46,3.02-2.92,4.54-4.37
	c0.68-0.65,1.36-1.31,2.06-1.98c0.91-0.86,0.91-0.86,1.83-1.74c1.51-1.4,1.51-1.4,1.29-3.48c-2.36-1.67-2.36-1.67-5.41-3.38
	c-0.56-0.33-1.12-0.66-1.7-0.99c-1.21-0.7-2.42-1.4-3.63-2.1c-3.12-1.8-6.22-3.63-9.32-5.45c-0.61-0.36-1.21-0.71-1.84-1.08
	c-4.59-2.69-9.16-5.41-13.66-8.25c-1.03-0.64-2.07-1.29-3.13-1.95c-3.42-2.66-4.14-4.84-4.9-9.09c-0.16-1.28-0.31-2.56-0.48-3.88
	c-0.09-0.69-0.17-1.38-0.26-2.09c-0.18-1.46-0.36-2.91-0.53-4.37c-0.26-2.22-0.54-4.43-0.82-6.65c-1.44-11.78-1.44-11.78-1.32-17.71
	c17.89-2.5,35.81-4.75,53.75-6.89c2.34-0.28,4.67-0.56,7.01-0.84c3.31-0.4,6.63-0.8,9.94-1.19c1.01-0.12,2.02-0.25,3.06-0.37
	c0.93-0.11,1.85-0.21,2.8-0.33c0.81-0.1,1.62-0.19,2.46-0.29C-165.4,223.23-165.4,223.23-163.4,224.23z"/>
<path class="st0" d="M-159.4-345.77c3.28,0.45,5.11,1.65,7.62,3.77c1.02,0.86,1.02,0.86,2.07,1.73c1.08,0.93,1.08,0.93,2.19,1.87
	c1.54,1.29,3.07,2.58,4.61,3.86c1.15,0.96,1.15,0.96,2.31,1.94c3.04,2.52,6.14,4.96,9.26,7.38c7.16,5.58,14.22,11.28,21.24,17.05
	c1.43,1.17,2.87,2.31,4.31,3.45c6.19,5.03,10.15,10.97,11.39,18.94c1.14,11.63-2.84,22.49-10.01,31.54
	c-9.51,10.98-21.25,20.17-36.16,21.69c-16.37,0.86-25.42-3.26-37.92-13.64c-2.61-2.17-5.25-4.3-7.88-6.44
	c-1.35-1.1-2.7-2.2-4.05-3.3c-4.39-3.58-8.82-7.11-13.29-10.6c-1.68-1.32-3.37-2.64-5.05-3.97c-1.1-0.86-2.2-1.72-3.31-2.58
	c-1.57-1.23-3.14-2.46-4.7-3.7c-1.34-1.05-1.34-1.05-2.71-2.12c-0.63-0.62-1.26-1.24-1.91-1.88c0-3.76,1.35-4.72,3.89-7.32
	c0.57-0.57,1.15-1.14,1.74-1.73c0.6-0.61,1.2-1.21,1.81-1.84c1.99-2.01,3.98-4.01,5.98-6c1.38-1.39,2.76-2.78,4.14-4.16
	c2.9-2.91,5.8-5.81,8.71-8.72c3.73-3.72,7.44-7.47,11.15-11.22c2.85-2.87,5.7-5.73,8.57-8.59c1.37-1.38,2.74-2.76,4.11-4.14
	c1.91-1.93,3.83-3.84,5.76-5.75c0.57-0.58,1.13-1.16,1.71-1.75C-162.24-343.55-162.24-343.55-159.4-345.77z M-158.56-303.84
	c-0.87,0.88-1.74,1.76-2.63,2.67c-0.46,0.47-0.93,0.93-1.4,1.41c-1.48,1.49-2.96,2.99-4.43,4.49c-1,1.01-2,2.02-3.01,3.04
	c-2.46,2.48-4.92,4.97-7.37,7.46c2.21,2.86,4.3,5.47,7.17,7.68c0.58,0.45,1.16,0.9,1.75,1.36c0.6,0.46,1.2,0.92,1.83,1.39
	c0.62,0.48,1.24,0.96,1.88,1.45c1.79,1.38,3.58,2.74,5.37,4.11c0.87,0.66,1.73,1.33,2.62,2.01c5.03,3.82,7.5,5.42,13.93,4.62
	c5.35-1.39,8.98-5.24,12.89-8.95c2.14-3.68,3.15-7.42,2.56-11.69c-2.82-4.36-6.61-7.27-10.69-10.38c-0.62-0.48-1.24-0.95-1.87-1.44
	c-1.24-0.95-2.47-1.9-3.71-2.85c-3.05-2.35-6.05-4.77-9.06-7.19C-155.48-306.5-156.08-306.05-158.56-303.84z"/>
<path class="st0" d="M269.6-1.77c3.28,0.45,5.11,1.65,7.62,3.77c1.02,0.86,1.02,0.86,2.07,1.73c1.08,0.93,1.08,0.93,2.19,1.87
	c1.54,1.29,3.07,2.58,4.61,3.86c1.15,0.96,1.15,0.96,2.31,1.94c3.04,2.52,6.14,4.96,9.26,7.38c5.81,4.52,11.54,9.14,17.23,13.8
	c3.74,3.06,7.54,6.03,11.39,8.95c5.25,4.18,9.02,9.01,10.31,15.69c1.04,9.61-1.51,17.93-7.12,25.75
	c-7.21,8.53-15.98,13.06-26.88,15.25c-3.37,0.26-6.63,0.27-10,0c-2.1,8.98-4.09,17.98-6,27c-6.15-2.63-11.2-7.56-16.35-11.72
	c-1.34-1.04-2.74-2.01-4.15-2.96c-1.93-1.33-1.93-1.33-4.49-4.33c-0.55-4.97,0.54-9.64,2.14-14.33c1.15-4.05,1.66-6.5,0.86-10.67
	c-4.19-5.55-10.67-11.07-17-14c-3.33,0.26-4.95,1.59-7.23,3.94c-0.57,0.58-1.15,1.17-1.74,1.77c-0.88,0.92-0.88,0.92-1.78,1.85
	c-0.6,0.62-1.2,1.23-1.82,1.87c-1.48,1.52-2.95,3.04-4.43,4.57c-5.18-3.83-10.29-7.74-15.38-11.69c-0.62-0.48-1.24-0.95-1.88-1.44
	c-2.76-2.15-4.79-3.93-6.75-6.87c8.13-8.25,16.27-16.48,24.44-24.69c3.79-3.81,7.57-7.63,11.35-11.46
	c3.64-3.69,7.29-7.38,10.95-11.05c1.4-1.41,2.79-2.82,4.18-4.23c1.94-1.98,3.89-3.94,5.85-5.89c0.57-0.59,1.15-1.19,1.74-1.8
	C266.73,0.5,266.73,0.5,269.6-1.77z M272.53,38.2c-0.82,0.84-1.65,1.67-2.5,2.53c-0.83,0.84-1.65,1.67-2.5,2.53
	c-0.96,0.97-0.96,0.97-1.93,1.97c3.09,4.22,6.5,7.19,10.62,10.31c1.25,0.96,2.51,1.92,3.76,2.88c0.61,0.47,1.23,0.94,1.86,1.43
	c2.48,1.95,4.82,4.06,7.19,6.13c3.25,2.6,4.16,3.22,8.44,3.56c3.71-1.56,5.2-2.78,7.12-6.31c0.11-2.45,0.11-2.45-1-5
	c-2.03-1.91-3.95-3.5-6.19-5.12c-1.27-0.96-2.54-1.91-3.8-2.87c-0.99-0.73-0.99-0.73-1.99-1.48c-3.95-2.98-7.79-6.09-11.66-9.17
	C276.24,35.92,276.24,35.92,272.53,38.2z"/>
<path class="st0" d="M-236.63-277.79c11.26,7.91,15.46,25.96,17.68,38.59c7.17,43.55,7.17,43.55-4,59.69
	c-3.64,4.38-7.84,8.27-13.45,9.75c-1.67,0.02-3.33,0.03-5,0c-0.67-4.73-1.31-9.46-1.93-14.2c-0.21-1.61-0.43-3.22-0.66-4.82
	c-0.33-2.32-0.63-4.63-0.92-6.96c-0.11-0.71-0.22-1.43-0.33-2.16c-0.63-5.3,0.62-7.73,3.84-11.86c2.65-7.96,1.16-16.59-0.81-24.56
	c-0.17-0.68-0.33-1.36-0.5-2.06c-0.98-3.67-1.96-6.68-4.69-9.38c-0.99,0-1.98,0-3,0c-2.9,5.8-1.05,14.87-0.5,21.19
	c0.54,7,0.65,13.98,0.69,21c0.01,1.09,0.03,2.19,0.04,3.31c0.01,10.19-0.27,22.23-7.71,30.07c-5.19,4.52-9.67,4.86-16.31,4.76
	c-6.38-0.65-10.89-2.99-15.39-7.54c-15.49-19.47-18.89-51.87-16.5-75.89c1.31-9.15,3.86-17.36,10.69-23.89c4.68-2.87,8.45-5,14-5
	c0.57,4.02,1.14,8.04,1.71,12.06c0.19,1.37,0.39,2.73,0.58,4.1c0.28,1.97,0.56,3.94,0.83,5.91c0.17,1.18,0.34,2.37,0.51,3.59
	c0.35,3.15,0.43,6.18,0.37,9.34c-0.66,0-1.32,0-2,0c-4.57,10.74-3.61,23.11,0.18,34.01c1.06,2.58,2.06,4.82,3.82,6.99
	c2.05,0.64,2.05,0.64,4,1c0.15-13.85,0.15-13.85-0.5-27.69c-2.74-36.6-2.74-36.6,7.94-49.19
	C-255.72-284.48-245.44-282.63-236.63-277.79z"/>
<path class="st0" d="M129.6-118.77c3.44,2.55,6.73,5.24,10,8c0.94,0.72,0.94,0.72,1.89,1.45c9.19,7.22,15.89,17.66,17.48,29.3
	c0.55,12.17-4.76,20.98-12.69,29.69c-10.98,11.89-22.17,20.38-38.87,21.06c-19.99-0.5-35.23-11.94-48.81-25.5
	c-0.7-0.69-1.4-1.38-2.12-2.09c-7.09-7.47-11.33-17.23-11.15-27.61c1.78-14.79,12.58-25.94,23.28-35.3
	C87.86-134.73,110.05-131.97,129.6-118.77z M81.73-89.32c-2.59,3.56-2.62,6.17-2.13,10.55c3.71,8.48,11.34,14.39,19.6,18.2
	c5.16,1.72,9.07,1.36,13.96-0.7c5.23-3.38,9.16-8.1,12.06-13.56c0.63-4.95-1.3-8.05-4.04-11.95c-4.91-6.11-11.13-10.5-18.59-12.99
	C93.05-100.74,87.61-96.54,81.73-89.32z"/>
<path class="st0" d="M-205.4-113.77c0.51,3.83,1.01,7.67,1.5,11.5c0.14,1.08,0.29,2.16,0.43,3.27c0.74,5.79,1.34,11.4,1.07,17.23
	c-1.74,1.74-4.19,1.48-6.57,1.75c-1.12,0.13-2.25,0.26-3.41,0.4c-1.18,0.13-2.37,0.27-3.59,0.41c-1.78,0.21-1.78,0.21-3.6,0.42
	c-2.95,0.34-5.89,0.68-8.84,1.02c0.61,10.36,1.73,20.59,3.06,30.87c0.19,1.48,0.38,2.96,0.56,4.43c0.45,3.56,0.91,7.13,1.37,10.69
	c8.91-0.99,17.82-1.98,27-3c1.23,6.14,2.36,12.01,3.12,18.19c0.09,0.66,0.17,1.32,0.26,2c0.53,4.29,0.78,8.49,0.61,12.81
	c-1.92,1.92-5.38,1.64-8.01,1.94c-0.73,0.09-1.47,0.18-2.22,0.27c-2.44,0.29-4.88,0.58-7.31,0.86c-1.69,0.2-3.38,0.4-5.07,0.6
	c-3.55,0.42-7.1,0.84-10.65,1.25c-4.55,0.53-9.1,1.07-13.64,1.61c-3.49,0.41-6.99,0.83-10.49,1.24c-1.68,0.2-3.35,0.4-5.03,0.59
	c-2.35,0.28-4.7,0.55-7.04,0.83c-0.69,0.08-1.38,0.17-2.09,0.25c-3.5,0.4-6.91,0.65-10.43,0.56c-1.36-6.02-2.34-12.07-3.12-18.19
	c-0.09-0.66-0.17-1.33-0.27-2.01c-0.54-4.36-0.61-8.36-0.61-12.8c8.91-1.32,17.82-2.64,27-4c-0.36-2.82-0.72-5.64-1.09-8.54
	c-0.35-2.74-0.7-5.48-1.04-8.22c-0.24-1.9-0.48-3.8-0.73-5.7c-0.35-2.74-0.7-5.47-1.04-8.21c-0.11-0.84-0.22-1.69-0.33-2.56
	c-0.54-4.29-0.89-8.44-0.76-12.78c-0.64,0.09-1.27,0.18-1.92,0.28c-2.9,0.41-5.8,0.82-8.7,1.22c-1,0.14-2,0.29-3.03,0.43
	c-4.82,0.67-9.47,1.27-14.35,1.07c-1.28-6.41-2.3-12.83-3.12-19.31c-0.09-0.67-0.17-1.34-0.27-2.03c-0.48-3.91-0.7-7.72-0.61-11.66
	c17.74-2.46,35.5-4.72,53.27-6.89c2.28-0.28,4.56-0.56,6.84-0.84c3.24-0.4,6.47-0.8,9.71-1.19c0.98-0.12,1.97-0.25,2.98-0.37
	c0.9-0.11,1.81-0.21,2.74-0.33c0.79-0.1,1.58-0.19,2.4-0.29C-208.4-114.77-208.4-114.77-205.4-113.77z"/>
<path class="st0" d="M181.72-74.54c2.2,0.9,3.76,2.03,5.6,3.54c0.69,0.56,1.37,1.12,2.08,1.7c0.71,0.59,1.41,1.18,2.14,1.79
	c0.7,0.57,1.41,1.15,2.13,1.74c3.85,3.17,7.43,6.46,10.93,10.01c-0.42,0.41-0.84,0.83-1.27,1.26c-4.37,4.33-8.73,8.66-13.09,12.99
	c-1.63,1.62-3.26,3.23-4.89,4.84c-2.35,2.32-4.68,4.65-7.02,6.98c-0.73,0.72-1.46,1.44-2.21,2.18c-6.23,6.08-6.23,6.08-8.96,14.13
	c0.85,7.04,3.97,10.48,9.25,14.88c5.66,4.27,10.77,7.51,18.11,7.07c7.2-1.12,12.36-7.21,17.2-12.15c0.74-0.75,1.49-1.5,2.26-2.27
	c2.36-2.38,4.71-4.76,7.06-7.15c1.61-1.62,3.21-3.24,4.82-4.86c3.92-3.96,7.84-7.92,11.74-11.89c1.25,0.94,2.51,1.88,3.76,2.82
	c0.7,0.52,1.4,1.05,2.12,1.59c3.19,2.4,6.35,4.83,9.49,7.28c0.61,0.47,1.23,0.94,1.86,1.43c2.76,2.16,4.8,3.94,6.76,6.88
	c-5.5,5.6-11.01,11.19-16.54,16.76c-1.88,1.89-3.75,3.79-5.62,5.7c-2.7,2.75-5.41,5.48-8.12,8.21c-0.82,0.84-1.65,1.69-2.49,2.56
	c-9.99,9.99-20.29,15.76-34.54,16.22c-20.04-0.52-35.13-11.72-48.69-25.44c-0.72-0.71-1.44-1.42-2.19-2.16
	c-7.07-7.43-11.26-17.22-11.09-27.54c1.54-12.82,10.05-22.54,18.82-31.31c1.2-1.22,1.2-1.22,2.43-2.46c1.69-1.7,3.37-3.39,5.07-5.08
	c2.6-2.6,5.17-5.21,7.75-7.83c1.64-1.65,3.29-3.3,4.94-4.95c0.77-0.79,1.54-1.57,2.33-2.38c0.72-0.71,1.44-1.42,2.19-2.16
	c0.63-0.63,1.26-1.26,1.91-1.92C179.6-74.77,179.6-74.77,181.72-74.54z"/>
<path class="st0" d="M-71.28-276.54c2.2,0.9,3.76,2.03,5.6,3.54c0.69,0.56,1.37,1.12,2.08,1.7c0.71,0.59,1.41,1.18,2.14,1.79
	c0.7,0.57,1.41,1.15,2.13,1.74c3.85,3.17,7.43,6.46,10.93,10.01c-0.42,0.41-0.84,0.83-1.27,1.26c-4.37,4.33-8.73,8.66-13.09,12.99
	c-1.63,1.62-3.26,3.23-4.89,4.84c-2.35,2.32-4.68,4.65-7.02,6.98c-0.73,0.72-1.46,1.44-2.21,2.18c-6.23,6.08-6.23,6.08-8.96,14.13
	c0.85,7.04,3.97,10.48,9.25,14.88c5.66,4.27,10.77,7.51,18.11,7.07c7.2-1.12,12.36-7.21,17.2-12.15c0.74-0.75,1.49-1.5,2.26-2.27
	c2.36-2.38,4.71-4.76,7.06-7.15c1.61-1.62,3.21-3.24,4.82-4.86c3.92-3.96,7.84-7.92,11.74-11.89c1.25,0.94,2.51,1.88,3.76,2.82
	c0.7,0.52,1.4,1.05,2.12,1.59c3.19,2.4,6.35,4.83,9.49,7.28c0.61,0.47,1.23,0.94,1.86,1.43c2.76,2.16,4.8,3.94,6.76,6.88
	c-5.5,5.6-11.01,11.19-16.54,16.76c-1.88,1.89-3.75,3.79-5.62,5.7c-2.7,2.75-5.41,5.48-8.12,8.21c-0.82,0.84-1.65,1.69-2.49,2.56
	c-9.99,9.99-20.29,15.76-34.54,16.22c-20.04-0.52-35.13-11.72-48.69-25.44c-0.72-0.71-1.44-1.42-2.19-2.16
	c-7.07-7.43-11.26-17.22-11.09-27.54c1.54-12.82,10.05-22.54,18.82-31.31c1.2-1.22,1.2-1.22,2.43-2.46c1.69-1.7,3.37-3.39,5.07-5.08
	c2.6-2.6,5.17-5.21,7.75-7.83c1.64-1.65,3.29-3.3,4.94-4.95c0.77-0.79,1.54-1.57,2.33-2.38c0.72-0.71,1.44-1.42,2.19-2.16
	c0.63-0.63,1.26-1.26,1.91-1.92C-73.4-276.77-73.4-276.77-71.28-276.54z"/>
<path class="st0" d="M17.6-203.77c3.28,0.45,5.11,1.65,7.62,3.77c1.02,0.86,1.02,0.86,2.07,1.73c1.08,0.93,1.08,0.93,2.19,1.87
	c1.54,1.29,3.07,2.58,4.61,3.86c1.15,0.96,1.15,0.96,2.31,1.94c3.04,2.52,6.14,4.96,9.26,7.38c5.03,3.92,10,7.91,14.94,11.94
	c9.85,8.03,19.78,15.94,30,23.5c-0.87,5.83-5.82,9.34-9.81,13.31c-0.82,0.85-1.64,1.7-2.49,2.57c-1.19,1.2-1.19,1.2-2.41,2.42
	c-0.73,0.73-1.45,1.47-2.2,2.22c-2.09,1.48-2.09,1.48-4.13,1.38c-2.17-1-3.75-2.13-5.57-3.68c-0.68-0.57-1.36-1.14-2.07-1.73
	c-0.72-0.62-1.45-1.23-2.19-1.87c-1.53-1.29-3.07-2.57-4.61-3.86c-0.76-0.64-1.53-1.28-2.31-1.94c-3.09-2.56-6.23-5.05-9.39-7.52
	c-0.55-0.43-1.11-0.87-1.68-1.31c-1.12-0.88-2.24-1.75-3.37-2.62c-3.22-2.51-6.43-5.04-9.64-7.56c-1.18-0.93-2.37-1.86-3.55-2.79
	c-0.85-0.67-1.7-1.33-2.57-2.02c-2.88,1.29-4.87,2.66-7,5c5.57,5.14,11.35,9.91,17.33,14.56c4.83,3.76,9.61,7.58,14.36,11.44
	c0.68,0.55,1.37,1.1,2.07,1.67c0.64,0.52,1.28,1.04,1.94,1.58c0.57,0.46,1.13,0.92,1.71,1.39c1.61,1.38,3.11,2.84,4.59,4.36
	c-0.57,0.56-1.14,1.11-1.72,1.69c-4.45,4.4-8.71,8.84-12.67,13.68c-1.74,1.76-3.35,2.65-5.61,3.63
	c-7.44-5.8-14.83-11.65-22.12-17.62C8.98-126.7,2.36-131.81-4.4-136.77c-6.03,4.98-11.52,10.42-17,16
	c-5.18-3.83-10.29-7.74-15.37-11.69c-0.62-0.48-1.24-0.95-1.88-1.44c-2.76-2.15-4.79-3.93-6.75-6.87
	c8.13-8.25,16.27-16.48,24.44-24.69c3.79-3.81,7.57-7.63,11.35-11.46c3.64-3.69,7.29-7.38,10.95-11.05c1.4-1.41,2.79-2.82,4.18-4.23
	c1.94-1.98,3.89-3.94,5.85-5.89c0.57-0.59,1.15-1.19,1.74-1.8C14.73-201.5,14.73-201.5,17.6-203.77z"/>
<path class="st0" d="M-179.4,95.23c0.58,4.13,1.15,8.25,1.71,12.38c0.19,1.4,0.39,2.8,0.58,4.2c0.62,4.47,1.2,8.94,1.71,13.42
	c0.1,0.86,0.21,1.72,0.31,2.61c0.15,2.11,0.15,2.11-0.31,5.39c-2.34,2.31-2.34,2.31-5.38,4c-1,0.58-2,1.15-3.02,1.75
	c-2.6,1.25-2.6,1.25-4.6,1.25c0.19,0.98,0.19,0.98,0.38,1.97c1.33,7.09,2.36,14.18,3.24,21.34c0.2,1.57,0.2,1.57,0.41,3.17
	c0.61,4.87,1.15,9.61,0.97,14.52c0.87,0.18,0.87,0.18,1.76,0.37c0.78,0.17,1.56,0.34,2.37,0.51c0.77,0.16,1.53,0.32,2.32,0.49
	c2.91,0.72,5.71,1.67,8.55,2.63c0.58,3.98,1.15,7.97,1.71,11.95c0.19,1.35,0.39,2.7,0.58,4.06c1.02,7.04,2,13.88,1.71,20.99
	c-3.43-0.61-6.53-1.48-9.77-2.76c-1.39-0.54-1.39-0.54-2.8-1.1c-1.49-0.59-1.49-0.59-3.01-1.19c-1.05-0.41-2.09-0.82-3.17-1.24
	c-3.4-1.34-6.79-2.68-10.18-4.02c-2.32-0.91-4.64-1.83-6.96-2.74c-48.17-18.98-48.17-18.98-52.1-20.95
	c-0.59-2.94-0.59-2.94-1.07-6.85c-0.09-0.69-0.17-1.38-0.26-2.1c-0.18-1.47-0.36-2.94-0.53-4.41c-0.26-2.23-0.54-4.46-0.82-6.7
	c-1.6-13.17-1.6-13.17-1.32-18.94c1.62-2.05,1.62-2.05,4-3.75c0.92-0.67,1.83-1.34,2.78-2.03c1.06-0.73,2.13-1.46,3.22-2.22
	c1.21-0.84,2.42-1.69,3.63-2.53c2.69-1.86,5.39-3.71,8.1-5.55c4.27-2.91,8.5-5.87,12.71-8.86c0.7-0.5,1.41-1,2.13-1.51
	c2.14-1.52,4.29-3.04,6.43-4.55c8.64-6.12,17.29-12.23,26-18.25c0.69-0.48,1.38-0.96,2.09-1.45
	C-180.52,95.23-180.52,95.23-179.4,95.23z M-213.75,155.86c-1.28,0.81-1.28,0.81-2.58,1.64c-0.89,0.57-1.78,1.14-2.7,1.73
	c-0.9,0.57-1.79,1.14-2.72,1.73c-2.22,1.42-4.44,2.84-6.66,4.27c2.55,1.7,4.32,2.57,7.16,3.51c1.19,0.4,1.19,0.4,2.4,0.8
	c0.82,0.27,1.65,0.54,2.5,0.82c0.83,0.28,1.66,0.55,2.51,0.84c4.13,1.49,4.13,1.49,8.43,2.04c-0.66-6.6-1.32-13.2-2-20
	C-210.15,153.23-211.44,154.38-213.75,155.86z"/>
<path class="st0" d="M-246.4,15.23c1.93,1.93,1.65,5.35,1.97,7.92c0.09,0.7,0.17,1.39,0.26,2.11c0.18,1.48,0.37,2.96,0.55,4.44
	c0.28,2.25,0.56,4.51,0.84,6.76c1.49,12.06,1.49,12.06,1.37,16.77c0.93-0.17,0.93-0.17,1.88-0.35c9.42-1.65,18.88-2.8,28.37-3.94
	c2.83-0.34,5.66-0.69,8.49-1.03c1.8-0.22,3.61-0.44,5.41-0.66c0.84-0.1,1.69-0.21,2.56-0.31c3.11-0.37,6.14-0.71,9.28-0.71
	c1.32,10.89,2.64,21.78,4,33c-6.72,1.34-13.25,2.5-20.02,3.29c-1.36,0.16-1.36,0.16-2.75,0.33c-1.9,0.23-3.8,0.45-5.7,0.67
	c-2.91,0.34-5.82,0.69-8.73,1.03c-1.86,0.22-3.71,0.44-5.57,0.66c-1.3,0.15-1.3,0.15-2.63,0.31c-1.21,0.14-1.21,0.14-2.45,0.28
	c-0.71,0.08-1.41,0.17-2.14,0.25c-2,0.18-4,0.18-6.01,0.18c0.13,0.63,0.25,1.26,0.38,1.91c1.48,7.73,2.42,15.46,3.24,23.28
	c0.2,1.86,0.2,1.86,0.41,3.75c0.33,3.02,0.65,6.04,0.97,9.06c-3.56,0.51-7.12,1-10.69,1.5c-1.01,0.14-2.01,0.29-3.05,0.43
	c-0.98,0.14-1.95,0.27-2.96,0.41c-1.34,0.19-1.34,0.19-2.71,0.38c-2.55,0.27-5.02,0.29-7.59,0.28c-2.11-10.33-3.31-20.77-4.6-31.23
	c-0.24-1.96-0.49-3.92-0.73-5.87c-0.51-4.09-1.01-8.17-1.52-12.26c-0.64-5.22-1.3-10.44-1.95-15.66c-0.5-4.04-1-8.07-1.5-12.11
	c-0.24-1.92-0.48-3.85-0.72-5.77c-0.34-2.69-0.67-5.39-1-8.08c-0.1-0.78-0.2-1.57-0.3-2.37c-0.63-5.25-0.76-10.36-0.68-15.65
	c3.4-0.5,6.79-1,10.19-1.5c1.44-0.21,1.44-0.21,2.91-0.43c1.4-0.2,1.4-0.2,2.82-0.41c0.85-0.13,1.71-0.25,2.59-0.38
	C-251.37,15.23-248.95,15.12-246.4,15.23z"/>
<path class="st0" d="M-212.4-164.77c1.36,6.02,2.34,12.07,3.12,18.19c0.09,0.66,0.17,1.33,0.27,2.01c0.53,4.29,0.77,8.48,0.61,12.8
	c-1.92,1.92-5.38,1.64-8.01,1.94c-0.73,0.09-1.47,0.18-2.22,0.27c-2.44,0.29-4.88,0.58-7.31,0.86c-1.69,0.2-3.38,0.4-5.07,0.6
	c-3.55,0.42-7.1,0.84-10.65,1.25c-4.55,0.53-9.1,1.07-13.64,1.61c-3.49,0.41-6.99,0.83-10.49,1.24c-1.68,0.2-3.35,0.4-5.03,0.59
	c-2.35,0.28-4.7,0.55-7.04,0.83c-0.69,0.08-1.38,0.17-2.09,0.25c-3.5,0.4-6.91,0.65-10.43,0.56c-1.36-6.02-2.34-12.07-3.12-18.19
	c-0.09-0.66-0.17-1.33-0.27-2.01c-0.53-4.29-0.69-8.48-0.61-12.8c18.89-2.62,37.81-4.98,56.75-7.25c1.7-0.2,1.7-0.2,3.44-0.41
	c3.24-0.39,6.49-0.78,9.73-1.16c0.99-0.12,1.98-0.24,2.99-0.36c0.91-0.11,1.81-0.21,2.74-0.33c0.79-0.09,1.59-0.19,2.4-0.29
	C-214.4-164.77-214.4-164.77-212.4-164.77z"/>
<path class="st0" d="M9.85,23.17c0.02,0.08,0.02,0.08,0.03,0.17c0,0.04,0.01,0.07,0.01,0.11c0,0.04,0.01,0.08,0.01,0.11
	c0.01,0.06,0.01,0.06,0.01,0.11c0.02,0.2,0.04,0.39,0.03,0.59c-0.07,0.07-0.23,0.06-0.33,0.08c-0.03,0-0.06,0.01-0.09,0.01
	c-0.1,0.01-0.19,0.02-0.29,0.04c-0.06,0.01-0.13,0.02-0.19,0.02c-0.16,0.02-0.32,0.04-0.48,0.06c0.02,0.01,0.04,0.02,0.06,0.03
	c0.38,0.2,0.76,0.41,1.13,0.63c0.03,0.02,0.07,0.04,0.1,0.06c0.23,0.14,0.23,0.14,0.27,0.18c0.01,0.07,0.02,0.13,0.03,0.2
	c0.01,0.08,0.01,0.08,0.02,0.15c0.02,0.14,0.01,0.21-0.08,0.32c-0.09,0.09-0.18,0.17-0.28,0.26c-0.02,0.02-0.05,0.04-0.07,0.06
	c-0.04,0.04-0.09,0.08-0.13,0.11c-0.12,0.1-0.22,0.21-0.33,0.32c-0.12,0.11-0.24,0.22-0.36,0.33c0.31-0.02,0.63-0.05,0.94-0.09
	c0.04,0,0.08-0.01,0.13-0.01c0.1-0.01,0.21-0.02,0.31-0.04c0.04,0.21,0.08,0.42,0.11,0.63c0,0.02,0.01,0.05,0.01,0.07
	c0.02,0.15,0.03,0.29,0.02,0.44c-0.07,0.07-0.19,0.06-0.28,0.07c-0.03,0-0.05,0.01-0.08,0.01c-0.08,0.01-0.17,0.02-0.25,0.03
	c-0.06,0.01-0.12,0.01-0.17,0.02c-0.12,0.01-0.24,0.03-0.37,0.04c-0.16,0.02-0.31,0.04-0.47,0.06c-0.12,0.01-0.24,0.03-0.36,0.04
	c-0.06,0.01-0.12,0.01-0.17,0.02c-0.08,0.01-0.16,0.02-0.24,0.03c-0.02,0-0.05,0.01-0.07,0.01c-0.12,0.01-0.24,0.02-0.36,0.02
	c-0.05-0.25-0.09-0.51-0.13-0.76c0-0.04-0.01-0.07-0.01-0.11c0-0.03-0.01-0.07-0.01-0.11c0-0.03-0.01-0.06-0.01-0.09
	c0-0.03-0.01-0.07-0.01-0.1c-0.01-0.04-0.01-0.09-0.02-0.13c0-0.16,0.08-0.24,0.2-0.35c0.03-0.02,0.05-0.05,0.08-0.07
	c0.03-0.03,0.05-0.05,0.08-0.08c0.08-0.08,0.17-0.16,0.25-0.24c0.08-0.08,0.17-0.16,0.25-0.24c0.05-0.05,0.1-0.1,0.16-0.15
	C8.45,26.02,8.47,26,8.5,25.97c0.03-0.03,0.03-0.03,0.06-0.06c0.05-0.05,0.05-0.05,0.04-0.12c-0.08-0.06-0.08-0.06-0.19-0.12
	c-0.02-0.01-0.04-0.02-0.06-0.03c-0.04-0.02-0.08-0.05-0.13-0.07c-0.11-0.06-0.21-0.13-0.32-0.19c-0.02-0.01-0.04-0.02-0.06-0.04
	c-0.16-0.09-0.32-0.19-0.47-0.28c-0.04-0.02-0.07-0.04-0.11-0.07c-0.12-0.09-0.14-0.17-0.17-0.31c-0.01-0.04-0.01-0.09-0.02-0.13
	c0-0.02-0.01-0.05-0.01-0.07c-0.01-0.05-0.01-0.1-0.02-0.15c-0.01-0.08-0.02-0.15-0.03-0.23c-0.05-0.41-0.05-0.41-0.05-0.61
	c0.62-0.09,1.24-0.16,1.85-0.24c0.08-0.01,0.16-0.02,0.24-0.03c0.11-0.01,0.23-0.03,0.34-0.04c0.03,0,0.07-0.01,0.11-0.01
	c0.03,0,0.06-0.01,0.1-0.01c0.03,0,0.06-0.01,0.08-0.01C9.78,23.14,9.78,23.14,9.85,23.17z"/>
<path class="st0" d="M9.99,3.52c0.11,0.02,0.18,0.06,0.26,0.13c0.04,0.03,0.04,0.03,0.07,0.06c0.04,0.03,0.04,0.03,0.08,0.06
	c0.05,0.04,0.11,0.09,0.16,0.13c0.04,0.03,0.04,0.03,0.08,0.07c0.1,0.09,0.21,0.17,0.32,0.25c0.25,0.19,0.49,0.39,0.73,0.59
	c0.05,0.04,0.1,0.08,0.15,0.12c0.21,0.17,0.35,0.38,0.39,0.65c0.04,0.4-0.1,0.78-0.35,1.09c-0.33,0.38-0.73,0.7-1.25,0.75
	c-0.56,0.03-0.88-0.11-1.31-0.47C9.24,6.88,9.15,6.8,9.05,6.73C9.01,6.69,8.96,6.65,8.92,6.61c-0.15-0.12-0.3-0.25-0.46-0.37
	C8.4,6.2,8.34,6.16,8.28,6.11C8.24,6.08,8.21,6.05,8.17,6.02C8.11,5.98,8.06,5.94,8.01,5.9C7.96,5.86,7.96,5.86,7.91,5.82
	C7.89,5.8,7.87,5.78,7.85,5.76c0-0.13,0.05-0.16,0.13-0.25C8,5.49,8.02,5.47,8.04,5.45C8.06,5.42,8.08,5.4,8.1,5.38
	c0.07-0.07,0.14-0.14,0.21-0.21c0.05-0.05,0.1-0.1,0.14-0.14c0.1-0.1,0.2-0.2,0.3-0.3C8.88,4.6,9.01,4.47,9.14,4.34
	c0.1-0.1,0.2-0.2,0.3-0.3C9.48,4,9.53,3.95,9.57,3.91c0.07-0.07,0.13-0.13,0.2-0.2c0.02-0.02,0.04-0.04,0.06-0.06
	C9.89,3.59,9.89,3.59,9.99,3.52z M10.01,4.96C9.98,4.99,9.95,5.02,9.92,5.05C9.91,5.07,9.89,5.09,9.88,5.1
	c-0.05,0.05-0.1,0.1-0.15,0.15c-0.03,0.03-0.07,0.07-0.1,0.1C9.53,5.45,9.45,5.53,9.36,5.62c0.08,0.1,0.15,0.19,0.25,0.26
	C9.63,5.9,9.65,5.92,9.67,5.93c0.02,0.02,0.04,0.03,0.06,0.05C9.76,6,9.78,6.01,9.8,6.03c0.06,0.05,0.12,0.09,0.19,0.14
	c0.03,0.02,0.06,0.05,0.09,0.07c0.17,0.13,0.26,0.19,0.48,0.16c0.18-0.05,0.31-0.18,0.44-0.31c0.07-0.13,0.11-0.26,0.09-0.4
	c-0.1-0.15-0.23-0.25-0.37-0.36c-0.02-0.02-0.04-0.03-0.06-0.05c-0.04-0.03-0.09-0.07-0.13-0.1c-0.11-0.08-0.21-0.16-0.31-0.25
	C10.12,4.87,10.1,4.89,10.01,4.96z"/>
<path class="st0" d="M24.78,15.38c0.11,0.02,0.18,0.06,0.26,0.13c0.04,0.03,0.04,0.03,0.07,0.06c0.04,0.03,0.04,0.03,0.08,0.06
	c0.05,0.04,0.11,0.09,0.16,0.13c0.04,0.03,0.04,0.03,0.08,0.07c0.1,0.09,0.21,0.17,0.32,0.25c0.2,0.16,0.4,0.32,0.59,0.48
	c0.13,0.11,0.26,0.21,0.39,0.31c0.18,0.14,0.31,0.31,0.36,0.54c0.04,0.33-0.05,0.62-0.25,0.89c-0.25,0.29-0.55,0.45-0.93,0.53
	c-0.12,0.01-0.23,0.01-0.34,0c-0.07,0.31-0.14,0.62-0.21,0.93c-0.21-0.09-0.39-0.26-0.56-0.4c-0.05-0.04-0.09-0.07-0.14-0.1
	c-0.07-0.05-0.07-0.05-0.15-0.15c-0.02-0.17,0.02-0.33,0.07-0.49c0.04-0.14,0.06-0.22,0.03-0.37c-0.14-0.19-0.37-0.38-0.59-0.48
	c-0.11,0.01-0.17,0.05-0.25,0.14c-0.02,0.02-0.04,0.04-0.06,0.06c-0.03,0.03-0.03,0.03-0.06,0.06c-0.02,0.02-0.04,0.04-0.06,0.06
	c-0.05,0.05-0.1,0.1-0.15,0.16c-0.18-0.13-0.35-0.27-0.53-0.4c-0.02-0.02-0.04-0.03-0.06-0.05c-0.1-0.07-0.17-0.14-0.23-0.24
	c0.28-0.28,0.56-0.57,0.84-0.85c0.13-0.13,0.26-0.26,0.39-0.4c0.13-0.13,0.25-0.25,0.38-0.38c0.05-0.05,0.1-0.1,0.14-0.15
	c0.07-0.07,0.13-0.14,0.2-0.2c0.02-0.02,0.04-0.04,0.06-0.06C24.68,15.46,24.68,15.46,24.78,15.38z M24.88,16.76
	c-0.03,0.03-0.06,0.06-0.09,0.09c-0.03,0.03-0.06,0.06-0.09,0.09c-0.03,0.03-0.03,0.03-0.07,0.07c0.11,0.15,0.22,0.25,0.37,0.36
	c0.04,0.03,0.09,0.07,0.13,0.1c0.02,0.02,0.04,0.03,0.06,0.05c0.09,0.07,0.17,0.14,0.25,0.21c0.11,0.09,0.14,0.11,0.29,0.12
	c0.13-0.05,0.18-0.1,0.25-0.22c0-0.08,0-0.08-0.03-0.17c-0.07-0.07-0.14-0.12-0.21-0.18c-0.04-0.03-0.09-0.07-0.13-0.1
	c-0.03-0.03-0.03-0.03-0.07-0.05c-0.14-0.1-0.27-0.21-0.4-0.32C25.01,16.68,25.01,16.68,24.88,16.76z"/>
<path class="st0" d="M7.32,5.86c0.39,0.27,0.53,0.9,0.61,1.33c0.25,1.5,0.25,1.5-0.14,2.06C7.67,9.4,7.52,9.53,7.33,9.59
	c-0.06,0-0.11,0-0.17,0C7.13,9.42,7.11,9.26,7.09,9.1C7.08,9.04,7.08,8.99,7.07,8.93C7.06,8.85,7.05,8.77,7.04,8.69
	c0-0.02-0.01-0.05-0.01-0.07C7,8.43,7.05,8.35,7.16,8.21C7.25,7.93,7.2,7.63,7.13,7.36C7.12,7.34,7.12,7.31,7.11,7.29
	C7.08,7.16,7.04,7.06,6.95,6.96c-0.03,0-0.07,0-0.1,0c-0.1,0.2-0.04,0.51-0.02,0.73c0.02,0.24,0.02,0.48,0.02,0.72
	c0,0.04,0,0.08,0,0.11c0,0.35-0.01,0.77-0.27,1.04C6.41,9.73,6.26,9.74,6.03,9.73C5.81,9.71,5.65,9.63,5.5,9.47
	C4.96,8.8,4.84,7.69,4.93,6.86c0.05-0.32,0.13-0.6,0.37-0.82c0.16-0.1,0.29-0.17,0.48-0.17C5.8,6,5.82,6.14,5.84,6.28
	c0.01,0.05,0.01,0.09,0.02,0.14c0.01,0.07,0.02,0.14,0.03,0.2C5.89,6.66,5.9,6.7,5.9,6.75c0.01,0.11,0.01,0.21,0.01,0.32
	c-0.02,0-0.05,0-0.07,0c-0.16,0.37-0.12,0.8,0.01,1.17c0.04,0.09,0.07,0.17,0.13,0.24C6.06,8.5,6.06,8.5,6.12,8.52
	c0.01-0.48,0.01-0.48-0.02-0.95C6.01,6.3,6.01,6.3,6.38,5.87C6.66,5.63,7.02,5.69,7.32,5.86z"/>
<path class="st0" d="M19.95,11.34c0.12,0.09,0.23,0.18,0.34,0.28c0.03,0.02,0.03,0.02,0.07,0.05c0.32,0.25,0.55,0.61,0.6,1.01
	c0.02,0.42-0.16,0.72-0.44,1.02c-0.38,0.41-0.76,0.7-1.34,0.73c-0.69-0.02-1.21-0.41-1.68-0.88c-0.02-0.02-0.05-0.05-0.07-0.07
	c-0.24-0.26-0.39-0.59-0.38-0.95c0.06-0.51,0.43-0.89,0.8-1.22C18.51,10.79,19.28,10.89,19.95,11.34z M18.3,12.36
	c-0.09,0.12-0.09,0.21-0.07,0.36c0.13,0.29,0.39,0.5,0.68,0.63c0.18,0.06,0.31,0.05,0.48-0.02c0.18-0.12,0.32-0.28,0.42-0.47
	c0.02-0.17-0.04-0.28-0.14-0.41c-0.17-0.21-0.38-0.36-0.64-0.45C18.69,11.97,18.5,12.11,18.3,12.36z"/>
<path class="st0" d="M8.4,11.52c0.02,0.13,0.03,0.26,0.05,0.4c0,0.04,0.01,0.07,0.01,0.11c0.03,0.2,0.05,0.39,0.04,0.59
	c-0.06,0.06-0.14,0.05-0.23,0.06c-0.04,0-0.08,0.01-0.12,0.01c-0.04,0-0.08,0.01-0.12,0.01c-0.06,0.01-0.06,0.01-0.12,0.01
	c-0.1,0.01-0.2,0.02-0.3,0.04c0.02,0.36,0.06,0.71,0.11,1.06c0.01,0.05,0.01,0.1,0.02,0.15c0.02,0.12,0.03,0.25,0.05,0.37
	c0.31-0.03,0.61-0.07,0.93-0.1c0.04,0.21,0.08,0.41,0.11,0.63c0,0.02,0.01,0.05,0.01,0.07c0.02,0.15,0.03,0.29,0.02,0.44
	c-0.07,0.07-0.19,0.06-0.28,0.07c-0.03,0-0.05,0.01-0.08,0.01c-0.08,0.01-0.17,0.02-0.25,0.03c-0.06,0.01-0.12,0.01-0.17,0.02
	c-0.12,0.01-0.24,0.03-0.37,0.04c-0.16,0.02-0.31,0.04-0.47,0.06c-0.12,0.01-0.24,0.03-0.36,0.04c-0.06,0.01-0.12,0.01-0.17,0.02
	c-0.08,0.01-0.16,0.02-0.24,0.03c-0.02,0-0.05,0.01-0.07,0.01c-0.12,0.01-0.24,0.02-0.36,0.02c-0.05-0.21-0.08-0.42-0.11-0.63
	c0-0.02-0.01-0.05-0.01-0.07c-0.02-0.15-0.02-0.29-0.02-0.44c0.31-0.05,0.61-0.09,0.93-0.14c-0.01-0.1-0.02-0.19-0.04-0.29
	c-0.01-0.09-0.02-0.19-0.04-0.28c-0.01-0.07-0.02-0.13-0.03-0.2c-0.01-0.09-0.02-0.19-0.04-0.28c0-0.03-0.01-0.06-0.01-0.09
	c-0.02-0.15-0.03-0.29-0.03-0.44c-0.02,0-0.04,0.01-0.07,0.01c-0.1,0.01-0.2,0.03-0.3,0.04c-0.03,0-0.07,0.01-0.1,0.01
	C6,12.95,5.84,12.97,5.67,12.97c-0.04-0.22-0.08-0.44-0.11-0.67c0-0.02-0.01-0.05-0.01-0.07c-0.02-0.13-0.02-0.27-0.02-0.4
	c0.61-0.08,1.22-0.16,1.84-0.24c0.08-0.01,0.16-0.02,0.24-0.03c0.11-0.01,0.22-0.03,0.33-0.04c0.03,0,0.07-0.01,0.1-0.01
	c0.03,0,0.06-0.01,0.09-0.01c0.03,0,0.05-0.01,0.08-0.01C8.3,11.48,8.3,11.48,8.4,11.52z"/>
<path class="st0" d="M21.75,12.87c0.08,0.03,0.13,0.07,0.19,0.12c0.02,0.02,0.05,0.04,0.07,0.06c0.02,0.02,0.05,0.04,0.07,0.06
	c0.02,0.02,0.05,0.04,0.07,0.06c0.13,0.11,0.26,0.22,0.38,0.35c-0.01,0.01-0.03,0.03-0.04,0.04c-0.15,0.15-0.3,0.3-0.45,0.45
	c-0.06,0.06-0.11,0.11-0.17,0.17c-0.08,0.08-0.16,0.16-0.24,0.24c-0.03,0.02-0.05,0.05-0.08,0.08c-0.21,0.21-0.21,0.21-0.31,0.49
	c0.03,0.24,0.14,0.36,0.32,0.51c0.2,0.15,0.37,0.26,0.62,0.24c0.25-0.04,0.43-0.25,0.59-0.42c0.03-0.03,0.05-0.05,0.08-0.08
	c0.08-0.08,0.16-0.16,0.24-0.25c0.06-0.06,0.11-0.11,0.17-0.17c0.14-0.14,0.27-0.27,0.4-0.41c0.04,0.03,0.09,0.06,0.13,0.1
	c0.02,0.02,0.05,0.04,0.07,0.05c0.11,0.08,0.22,0.17,0.33,0.25c0.02,0.02,0.04,0.03,0.06,0.05c0.1,0.07,0.17,0.14,0.23,0.24
	c-0.19,0.19-0.38,0.39-0.57,0.58c-0.06,0.07-0.13,0.13-0.19,0.2c-0.09,0.09-0.19,0.19-0.28,0.28c-0.03,0.03-0.06,0.06-0.09,0.09
	c-0.34,0.34-0.7,0.54-1.19,0.56c-0.69-0.02-1.21-0.4-1.68-0.88c-0.02-0.02-0.05-0.05-0.08-0.07c-0.24-0.26-0.39-0.59-0.38-0.95
	c0.05-0.44,0.35-0.78,0.65-1.08c0.04-0.04,0.04-0.04,0.08-0.08c0.06-0.06,0.12-0.12,0.17-0.18c0.09-0.09,0.18-0.18,0.27-0.27
	c0.06-0.06,0.11-0.11,0.17-0.17c0.03-0.03,0.05-0.05,0.08-0.08c0.02-0.02,0.05-0.05,0.08-0.07c0.02-0.02,0.04-0.04,0.07-0.07
	C21.68,12.86,21.68,12.86,21.75,12.87z"/>
<path class="st0" d="M13.02,5.9c0.08,0.03,0.13,0.07,0.19,0.12c0.02,0.02,0.05,0.04,0.07,0.06c0.02,0.02,0.05,0.04,0.07,0.06
	c0.02,0.02,0.05,0.04,0.07,0.06c0.13,0.11,0.26,0.22,0.38,0.35c-0.01,0.01-0.03,0.03-0.04,0.04c-0.15,0.15-0.3,0.3-0.45,0.45
	c-0.06,0.06-0.11,0.11-0.17,0.17c-0.08,0.08-0.16,0.16-0.24,0.24c-0.03,0.02-0.05,0.05-0.08,0.08c-0.21,0.21-0.21,0.21-0.31,0.49
	c0.03,0.24,0.14,0.36,0.32,0.51c0.2,0.15,0.37,0.26,0.62,0.24c0.25-0.04,0.43-0.25,0.59-0.42c0.03-0.03,0.05-0.05,0.08-0.08
	c0.08-0.08,0.16-0.16,0.24-0.25c0.06-0.06,0.11-0.11,0.17-0.17c0.14-0.14,0.27-0.27,0.4-0.41c0.04,0.03,0.09,0.06,0.13,0.1
	c0.02,0.02,0.05,0.04,0.07,0.05c0.11,0.08,0.22,0.17,0.33,0.25c0.02,0.02,0.04,0.03,0.06,0.05c0.1,0.07,0.17,0.14,0.23,0.24
	c-0.19,0.19-0.38,0.39-0.57,0.58c-0.06,0.07-0.13,0.13-0.19,0.2c-0.09,0.09-0.19,0.19-0.28,0.28c-0.03,0.03-0.06,0.06-0.09,0.09
	c-0.34,0.34-0.7,0.54-1.19,0.56c-0.69-0.02-1.21-0.4-1.68-0.88c-0.02-0.02-0.05-0.05-0.08-0.07c-0.24-0.26-0.39-0.59-0.38-0.95
	c0.05-0.44,0.35-0.78,0.65-1.08c0.04-0.04,0.04-0.04,0.08-0.08c0.06-0.06,0.12-0.12,0.17-0.18c0.09-0.09,0.18-0.18,0.27-0.27
	c0.06-0.06,0.11-0.11,0.17-0.17c0.03-0.03,0.05-0.05,0.08-0.08C12.77,6.05,12.8,6.03,12.82,6c0.02-0.02,0.04-0.04,0.07-0.07
	C12.95,5.9,12.95,5.9,13.02,5.9z"/>
<path class="st0" d="M16.09,8.41c0.11,0.02,0.18,0.06,0.26,0.13c0.04,0.03,0.04,0.03,0.07,0.06c0.04,0.03,0.04,0.03,0.08,0.06
	c0.05,0.04,0.11,0.09,0.16,0.13c0.04,0.03,0.04,0.03,0.08,0.07c0.1,0.09,0.21,0.17,0.32,0.25c0.17,0.14,0.34,0.27,0.52,0.41
	c0.34,0.28,0.68,0.55,1.03,0.81c-0.03,0.2-0.2,0.32-0.34,0.46c-0.03,0.03-0.06,0.06-0.09,0.09c-0.04,0.04-0.04,0.04-0.08,0.08
	c-0.03,0.03-0.05,0.05-0.08,0.08c-0.07,0.05-0.07,0.05-0.14,0.05c-0.07-0.03-0.13-0.07-0.19-0.13c-0.02-0.02-0.05-0.04-0.07-0.06
	c-0.02-0.02-0.05-0.04-0.08-0.06c-0.05-0.04-0.11-0.09-0.16-0.13c-0.03-0.02-0.05-0.04-0.08-0.07c-0.11-0.09-0.21-0.17-0.32-0.26
	c-0.02-0.01-0.04-0.03-0.06-0.05c-0.04-0.03-0.08-0.06-0.12-0.09c-0.11-0.09-0.22-0.17-0.33-0.26c-0.04-0.03-0.08-0.06-0.12-0.1
	c-0.03-0.02-0.06-0.05-0.09-0.07c-0.1,0.04-0.17,0.09-0.24,0.17c0.19,0.18,0.39,0.34,0.6,0.5c0.17,0.13,0.33,0.26,0.5,0.39
	c0.02,0.02,0.05,0.04,0.07,0.06c0.02,0.02,0.04,0.04,0.07,0.05c0.02,0.02,0.04,0.03,0.06,0.05c0.06,0.05,0.11,0.1,0.16,0.15
	c-0.02,0.02-0.04,0.04-0.06,0.06c-0.15,0.15-0.3,0.3-0.44,0.47c-0.06,0.06-0.12,0.09-0.19,0.13c-0.26-0.2-0.51-0.4-0.76-0.61
	c-0.22-0.18-0.45-0.36-0.69-0.53c-0.21,0.17-0.4,0.36-0.59,0.55c-0.18-0.13-0.35-0.27-0.53-0.4c-0.02-0.02-0.04-0.03-0.06-0.05
	c-0.1-0.07-0.17-0.14-0.23-0.24c0.28-0.28,0.56-0.57,0.84-0.85c0.13-0.13,0.26-0.26,0.39-0.4c0.13-0.13,0.25-0.25,0.38-0.38
	c0.05-0.05,0.1-0.1,0.14-0.15c0.07-0.07,0.13-0.14,0.2-0.2c0.02-0.02,0.04-0.04,0.06-0.06C15.99,8.49,15.99,8.49,16.09,8.41z"/>
<path class="st0" d="M9.3,18.72c0.02,0.14,0.04,0.28,0.06,0.43c0.01,0.05,0.01,0.1,0.02,0.14c0.02,0.15,0.04,0.31,0.06,0.46
	c0,0.03,0.01,0.06,0.01,0.09c0.01,0.07,0.01,0.07-0.01,0.19c-0.08,0.08-0.08,0.08-0.19,0.14c-0.03,0.02-0.07,0.04-0.1,0.06
	c-0.09,0.04-0.09,0.04-0.16,0.04c0.01,0.03,0.01,0.03,0.01,0.07c0.05,0.24,0.08,0.49,0.11,0.74c0.01,0.05,0.01,0.05,0.01,0.11
	c0.02,0.17,0.04,0.33,0.03,0.5c0.03,0.01,0.03,0.01,0.06,0.01c0.03,0.01,0.05,0.01,0.08,0.02c0.03,0.01,0.05,0.01,0.08,0.02
	c0.1,0.02,0.2,0.06,0.3,0.09c0.02,0.14,0.04,0.27,0.06,0.41c0.01,0.05,0.01,0.09,0.02,0.14c0.04,0.24,0.07,0.48,0.06,0.72
	c-0.12-0.02-0.23-0.05-0.34-0.1c-0.05-0.02-0.05-0.02-0.1-0.04c-0.05-0.02-0.05-0.02-0.1-0.04c-0.04-0.01-0.07-0.03-0.11-0.04
	c-0.12-0.05-0.23-0.09-0.35-0.14c-0.08-0.03-0.16-0.06-0.24-0.09C6.91,22,6.91,22,6.78,21.93c-0.02-0.1-0.02-0.1-0.04-0.24
	c0-0.02-0.01-0.05-0.01-0.07c-0.01-0.05-0.01-0.1-0.02-0.15c-0.01-0.08-0.02-0.15-0.03-0.23c-0.06-0.45-0.06-0.45-0.05-0.65
	c0.06-0.07,0.06-0.07,0.14-0.13c0.03-0.02,0.06-0.05,0.1-0.07c0.04-0.03,0.07-0.05,0.11-0.08c0.04-0.03,0.08-0.06,0.13-0.09
	c0.09-0.06,0.19-0.13,0.28-0.19c0.15-0.1,0.29-0.2,0.44-0.31c0.02-0.02,0.05-0.03,0.07-0.05c0.07-0.05,0.15-0.1,0.22-0.16
	c0.3-0.21,0.6-0.42,0.9-0.63c0.02-0.02,0.05-0.03,0.07-0.05C9.26,18.72,9.26,18.72,9.3,18.72z M8.11,20.81
	c-0.04,0.03-0.04,0.03-0.09,0.06c-0.03,0.02-0.06,0.04-0.09,0.06c-0.03,0.02-0.06,0.04-0.09,0.06c-0.08,0.05-0.15,0.1-0.23,0.15
	c0.09,0.06,0.15,0.09,0.25,0.12c0.04,0.01,0.04,0.01,0.08,0.03c0.03,0.01,0.06,0.02,0.09,0.03c0.03,0.01,0.06,0.02,0.09,0.03
	c0.14,0.05,0.14,0.05,0.29,0.07c-0.02-0.23-0.05-0.46-0.07-0.69C8.23,20.72,8.19,20.76,8.11,20.81z"/>
<path class="st0" d="M6.99,15.97c0.07,0.07,0.06,0.18,0.07,0.27c0,0.02,0.01,0.05,0.01,0.07c0.01,0.05,0.01,0.1,0.02,0.15
	c0.01,0.08,0.02,0.16,0.03,0.23c0.05,0.42,0.05,0.42,0.05,0.58c0.03-0.01,0.03-0.01,0.06-0.01c0.32-0.06,0.65-0.1,0.98-0.14
	c0.1-0.01,0.2-0.02,0.29-0.04c0.06-0.01,0.12-0.02,0.19-0.02c0.03,0,0.06-0.01,0.09-0.01c0.11-0.01,0.21-0.02,0.32-0.02
	c0.05,0.38,0.09,0.75,0.14,1.14c-0.23,0.05-0.46,0.09-0.69,0.11c-0.05,0.01-0.05,0.01-0.09,0.01c-0.07,0.01-0.13,0.02-0.2,0.02
	c-0.1,0.01-0.2,0.02-0.3,0.04c-0.06,0.01-0.13,0.02-0.19,0.02c-0.04,0.01-0.04,0.01-0.09,0.01c-0.04,0-0.04,0-0.08,0.01
	c-0.02,0-0.05,0.01-0.07,0.01c-0.07,0.01-0.14,0.01-0.21,0.01c0,0.02,0.01,0.04,0.01,0.07c0.05,0.27,0.08,0.53,0.11,0.8
	c0.01,0.06,0.01,0.06,0.01,0.13c0.01,0.1,0.02,0.21,0.03,0.31c-0.12,0.02-0.25,0.03-0.37,0.05c-0.03,0-0.07,0.01-0.11,0.01
	c-0.03,0-0.07,0.01-0.1,0.01c-0.05,0.01-0.05,0.01-0.09,0.01c-0.09,0.01-0.17,0.01-0.26,0.01c-0.07-0.36-0.11-0.72-0.16-1.08
	c-0.01-0.07-0.02-0.14-0.03-0.2c-0.02-0.14-0.03-0.28-0.05-0.42c-0.02-0.18-0.04-0.36-0.07-0.54c-0.02-0.14-0.03-0.28-0.05-0.42
	c-0.01-0.07-0.02-0.13-0.02-0.2c-0.01-0.09-0.02-0.19-0.03-0.28c0-0.03-0.01-0.05-0.01-0.08c-0.02-0.18-0.03-0.36-0.02-0.54
	c0.12-0.02,0.23-0.03,0.35-0.05c0.05-0.01,0.05-0.01,0.1-0.01c0.05-0.01,0.05-0.01,0.1-0.01c0.03,0,0.06-0.01,0.09-0.01
	C6.81,15.97,6.9,15.96,6.99,15.97z"/>
<path class="st0" d="M8.16,9.76c0.05,0.21,0.08,0.42,0.11,0.63c0,0.02,0.01,0.05,0.01,0.07C8.29,10.6,8.3,10.75,8.3,10.9
	c-0.07,0.07-0.19,0.06-0.28,0.07c-0.03,0-0.05,0.01-0.08,0.01C7.86,10.98,7.77,10.99,7.69,11c-0.06,0.01-0.12,0.01-0.17,0.02
	c-0.12,0.01-0.24,0.03-0.37,0.04c-0.16,0.02-0.31,0.04-0.47,0.06c-0.12,0.01-0.24,0.03-0.36,0.04c-0.06,0.01-0.12,0.01-0.17,0.02
	c-0.08,0.01-0.16,0.02-0.24,0.03c-0.02,0-0.05,0.01-0.07,0.01c-0.12,0.01-0.24,0.02-0.36,0.02c-0.05-0.21-0.08-0.42-0.11-0.63
	c0-0.02-0.01-0.05-0.01-0.07c-0.02-0.15-0.02-0.29-0.02-0.44c0.65-0.09,1.3-0.17,1.96-0.25c0.06-0.01,0.06-0.01,0.12-0.01
	C7.52,9.83,7.63,9.81,7.74,9.8c0.03,0,0.07-0.01,0.1-0.01c0.03,0,0.06-0.01,0.09-0.01c0.03,0,0.05-0.01,0.08-0.01
	C8.09,9.76,8.09,9.76,8.16,9.76z"/>
</svg>
