<?xml version="1.0" encoding="UTF-8"?>
<svg version="1.1" xmlns="http://www.w3.org/2000/svg" width="750" height="900">
<path d="M0 0 C0.50244141 2.18969727 0.50244141 2.18969727 0.8515625 5.06640625 C0.98046875 6.10990234 1.109375 7.15339844 1.2421875 8.22851562 C1.36851562 9.32873047 1.49484375 10.42894531 1.625 11.5625 C1.82609375 13.1722168 1.82609375 13.1722168 2.03125 14.81445312 C2.72280528 20.57623765 3.26222588 26.19652728 3 32 C0.84843276 34.15156724 -3.64747558 33.82499292 -6.62890625 34.19140625 C-7.49313705 34.30097153 -8.35736786 34.4105368 -9.24778748 34.52342224 C-12.0188698 34.87379401 -14.79065664 35.21820586 -17.5625 35.5625 C-19.43689822 35.79843711 -21.3112479 36.03476014 -23.18554688 36.27148438 C-27.78981253 36.85214237 -32.39471875 37.42745493 -37 38 C-36.44876465 38.29543701 -35.8975293 38.59087402 -35.32958984 38.89526367 C-24.33502079 44.8027764 -13.43017878 50.83145957 -2.6875 57.1875 C-1.73343262 57.75170654 -0.77936523 58.31591309 0.20361328 58.8972168 C6.85911718 62.85911718 6.85911718 62.85911718 8 64 C8.30400554 65.89159003 8.59019493 67.78823243 8.7734375 69.6953125 C8.96414509 71.98881895 8.96414509 71.98881895 9.4140625 74.1796875 C9.91837368 78.22858582 9.57537012 80.24821379 7.05078125 83.546875 C4.46201677 86.1633904 1.79145098 88.60159815 -1 91 C-1.6909375 91.60585938 -2.381875 92.21171875 -3.09375 92.8359375 C-4.36922215 93.94936196 -5.65054851 95.05611405 -6.9375 96.15625 C-10.27804635 99.14249598 -13.37565467 102.36792284 -16.5234375 105.5546875 C-19.87969009 108.8685899 -23.40810514 111.94694597 -27 115 C-17.86760169 114.36081785 -8.78250917 113.47678754 0.3125 112.4375 C1.54162109 112.29892578 2.77074219 112.16035156 4.03710938 112.01757812 C7.02497681 111.68042577 10.01259336 111.34120697 13 111 C14.26690478 117.04772153 15.36225096 123.05523986 16.125 129.1875 C16.21136719 129.84685547 16.29773438 130.50621094 16.38671875 131.18554688 C16.91973838 135.47931611 17.1648652 139.67503636 17 144 C15.07510689 145.92489311 11.62431496 145.63609013 8.98925781 145.93969727 C8.25587189 146.02762543 7.52248596 146.11555359 6.76687622 146.20614624 C4.3294491 146.49720343 1.89132827 146.78192976 -0.546875 147.06640625 C-2.23744141 147.2664637 -3.92797242 147.46682056 -5.61846924 147.66746521 C-9.16915756 148.08793488 -12.72018305 148.50539463 -16.27148438 148.9206543 C-20.81946964 149.4526085 -25.36666937 149.99095492 -29.9136467 150.53144932 C-33.40840689 150.94631881 -36.90350597 151.35827178 -40.39871979 151.76930046 C-42.07491496 151.96667527 -43.75101769 152.16483688 -45.42702484 152.36380196 C-47.77491571 152.64198281 -50.1232211 152.91635622 -52.47167969 153.18969727 C-53.16278839 153.27228287 -53.85389709 153.35486847 -54.56594849 153.43995667 C-58.06365056 153.84283392 -61.47898006 154.08786401 -65 154 C-66.58478802 146.66196355 -67.706781 139.32381738 -68.625 131.875 C-68.7590625 130.84246094 -68.893125 129.80992187 -69.03125 128.74609375 C-69.15757813 127.73417969 -69.28390625 126.72226562 -69.4140625 125.6796875 C-69.5270166 124.77976074 -69.6399707 123.87983398 -69.75634766 122.95263672 C-69.83675293 121.9782666 -69.9171582 121.00389648 -70 120 C-70.1654834 118.73091797 -70.3309668 117.46183594 -70.50146484 116.15429688 C-70.44576657 111.41938474 -68.06467997 109.1759174 -64.81616211 105.96109009 C-64.07245361 105.26494598 -63.32874512 104.56880188 -62.5625 103.8515625 C-61.80783447 103.1129599 -61.05316895 102.3743573 -60.27563477 101.6133728 C-57.86862676 99.26425069 -55.43592927 96.94408545 -53 94.625 C-50.56953651 92.27945401 -48.14472963 89.92832156 -45.72436523 87.57235718 C-44.21787219 86.10938871 -42.70449713 84.65346878 -41.18383789 83.20523071 C-40.50313232 82.55049774 -39.82242676 81.89576477 -39.12109375 81.22119141 C-38.21508423 80.35803818 -38.21508423 80.35803818 -37.29077148 79.47744751 C-35.78069052 78.07595187 -35.78069052 78.07595187 -36 76 C-38.36192667 74.33087088 -38.36192667 74.33087088 -41.4140625 72.62109375 C-41.97620956 72.2928511 -42.53835663 71.96460846 -43.11753845 71.62641907 C-44.32414082 70.92255645 -45.53260457 70.22187711 -46.7427063 69.52404785 C-49.86049131 67.7243167 -52.96229656 65.89739892 -56.06640625 64.07421875 C-56.67348923 63.71848785 -57.2805722 63.36275696 -57.90605164 62.99624634 C-62.4952426 60.30524708 -67.06175021 57.58661227 -71.5625 54.75 C-72.59503906 54.10546875 -73.62757812 53.4609375 -74.69140625 52.796875 C-78.11124773 50.13506945 -78.82690174 47.96021888 -79.59423828 43.70361328 C-79.75134277 42.42212402 -79.90844727 41.14063477 -80.0703125 39.8203125 C-80.15626678 39.12992889 -80.24222107 38.43954529 -80.33078003 37.72824097 C-80.51064511 36.27124128 -80.68693209 34.81379596 -80.85986328 33.35595703 C-81.12339231 31.13852773 -81.39862626 28.92279431 -81.67578125 26.70703125 C-83.11761646 14.92764127 -83.11761646 14.92764127 -83 9 C-65.10772967 6.49755315 -47.18616405 4.24803142 -29.24746704 2.10601807 C-26.91158285 1.82649871 -24.57594956 1.54487467 -22.24057007 1.26116943 C-18.9267031 0.85938723 -15.61197413 0.46568724 -12.296875 0.07421875 C-11.28669815 -0.04950607 -10.2765213 -0.1732309 -9.23573303 -0.30070496 C-8.3107048 -0.40812515 -7.38567657 -0.51554535 -6.43261719 -0.6262207 C-5.62153503 -0.72296585 -4.81045288 -0.819711 -3.97479248 -0.91938782 C-2 -1 -2 -1 0 0 Z " fill="#000000" transform="translate(191,629)"/>
<path d="M0 0 C3.28311334 0.4533403 5.11300326 1.64719276 7.6171875 3.7734375 C8.64017944 4.63110718 8.64017944 4.63110718 9.68383789 5.50610352 C10.76846313 6.43120728 10.76846313 6.43120728 11.875 7.375 C13.41167701 8.66405305 14.9494518 9.95179848 16.48828125 11.23828125 C17.63417725 12.19855225 17.63417725 12.19855225 18.80322266 13.17822266 C21.84378818 15.69974965 24.9436089 18.13901281 28.0625 20.5625 C35.22206662 26.14604833 42.28666711 31.84126822 49.29833984 37.609375 C50.72478645 38.77509091 52.16721646 39.9212112 53.61328125 41.0625 C59.79873227 46.09473133 63.75993859 52.03354491 65 60 C66.14097005 71.62911778 62.15729158 82.48816686 54.9921875 91.53515625 C45.48313779 102.51860565 33.74248739 111.70091798 18.83276367 113.22094727 C2.46521357 114.07647008 -6.58424786 109.95661983 -19.09082031 99.58251953 C-21.70347074 97.41689292 -24.33990896 95.28110621 -26.9753418 93.14331055 C-28.32710021 92.04615802 -29.67752146 90.94735601 -31.02661133 89.84692383 C-35.41854059 86.26648313 -39.848593 82.74016561 -44.3125 79.25 C-45.99630313 77.92820737 -47.67962241 76.60580114 -49.36279297 75.28320312 C-50.46405514 74.42006057 -51.56728461 73.55942276 -52.67236328 72.70117188 C-54.24669537 71.47611988 -55.81109768 70.238339 -57.375 69 C-58.71691406 67.948125 -58.71691406 67.948125 -60.0859375 66.875 C-60.71757812 66.25625 -61.34921875 65.6375 -62 65 C-62 61.23504604 -60.65093902 60.27804116 -58.10983276 57.68103027 C-57.53637115 57.11049927 -56.96290955 56.53996826 -56.37207031 55.95214844 C-55.77377411 55.34538269 -55.17547791 54.73861694 -54.55905151 54.11346436 C-52.57322365 52.10418046 -50.57632639 50.10634909 -48.578125 48.109375 C-47.19735408 46.72150826 -45.81688506 45.33334111 -44.43670654 43.94488525 C-41.53981274 41.03452719 -38.63702494 38.13019912 -35.73046875 35.22949219 C-31.99968462 31.50460894 -28.28747842 27.76179785 -24.57991409 24.01382065 C-21.73357098 21.14167785 -18.875888 18.2810331 -16.0147934 15.42359161 C-14.64086813 14.04796818 -13.27094481 12.66833602 -11.90506744 11.28472137 C-9.99686121 9.35447718 -8.07356752 7.44065806 -6.14550781 5.53027344 C-5.58014313 4.95164551 -5.01477844 4.37301758 -4.43228149 3.77685547 C-2.83477783 2.21331787 -2.83477783 2.21331787 0 0 Z M0.84521484 41.92773438 C-0.02409668 42.80751953 -0.8934082 43.68730469 -1.7890625 44.59375 C-2.25234955 45.05986694 -2.7156366 45.52598389 -3.19296265 46.00622559 C-4.67505459 47.4995339 -6.15005198 48.99963837 -7.625 50.5 C-8.62714533 51.51217325 -9.62974388 52.52389798 -10.6328125 53.53515625 C-13.09382662 56.01824993 -15.548523 58.50748617 -18 61 C-15.78721451 63.86432789 -13.70035583 66.47096884 -10.828125 68.68359375 C-10.2496582 69.1336377 -9.67119141 69.58368164 -9.07519531 70.04736328 C-8.47288086 70.5061084 -7.87056641 70.96485352 -7.25 71.4375 C-6.62963867 71.91687012 -6.00927734 72.39624023 -5.37011719 72.89013672 C-3.58491934 74.26655688 -1.79355647 75.63449872 0 77 C0.86625 77.66386719 1.7325 78.32773438 2.625 79.01171875 C7.65867425 82.83323982 10.12272802 84.43375595 16.55078125 83.63671875 C21.90197858 82.24557814 25.52658523 78.39785504 29.4375 74.6875 C31.57867151 71.004685 32.58404474 67.26352659 32 63 C29.17848507 58.63884359 25.39371882 55.72657246 21.3125 52.625 C20.6947168 52.14893311 20.07693359 51.67286621 19.44042969 51.18237305 C18.20419228 50.22974873 16.96642925 49.27910055 15.72705078 48.33056641 C12.67449554 45.97879569 9.6769726 43.55651748 6.671875 41.14453125 C3.92629348 39.26496259 3.31799489 39.71551239 0.84521484 41.92773438 Z " fill="#000000" transform="translate(195,59)"/>
<path d="M0 0 C3.28365038 0.44712183 5.11394792 1.64799485 7.6171875 3.7734375 C8.64017944 4.63110718 8.64017944 4.63110718 9.68383789 5.50610352 C10.76846313 6.43120728 10.76846313 6.43120728 11.875 7.375 C13.41167701 8.66405305 14.9494518 9.95179848 16.48828125 11.23828125 C17.63417725 12.19855225 17.63417725 12.19855225 18.80322266 13.17822266 C21.84378208 15.6997446 24.94349101 18.13917233 28.0625 20.5625 C33.8697744 25.08720165 39.60190823 29.69834535 45.29638672 34.36425781 C49.03829469 37.42723871 52.8329168 40.39149341 56.6875 43.3125 C61.93428132 47.49049253 65.70282778 52.32337829 67 59 C68.04444182 68.60544038 65.492195 76.92842114 59.875 84.75 C52.66993466 93.28311764 43.89087541 97.81121262 33 100 C29.62918498 100.26327749 26.36864728 100.27375012 23 100 C20.89679512 108.97964071 18.90743035 117.97690749 17 127 C10.84908491 124.37479555 5.80372794 119.44224551 0.64550781 115.28320312 C-0.69435443 114.23834913 -2.09407342 113.27061772 -3.5078125 112.328125 C-5.4375 111 -5.4375 111 -8 108 C-8.55384965 103.03213651 -7.46284192 98.35671532 -5.86328125 93.66796875 C-4.7124136 89.61491311 -4.20031528 87.16724591 -5 83 C-9.18740952 77.45370855 -15.67470621 71.93474917 -22 69 C-25.33120008 69.26147195 -26.95448082 70.59311524 -29.234375 72.94140625 C-29.80800781 73.52470703 -30.38164063 74.10800781 -30.97265625 74.70898438 C-31.85244141 75.62647461 -31.85244141 75.62647461 -32.75 76.5625 C-33.35199219 77.17802734 -33.95398438 77.79355469 -34.57421875 78.42773438 C-36.05634381 79.94514813 -37.5290967 81.47170596 -39 83 C-44.17590459 79.1698306 -49.28969765 75.26186299 -54.375 71.3125 C-54.99391113 70.83707764 -55.61282227 70.36165527 -56.25048828 69.87182617 C-59.01063286 67.71790999 -61.04200398 65.93699403 -63 63 C-54.86960232 54.75392593 -46.72587921 46.52127391 -38.56470871 38.30564785 C-34.77586283 34.49067051 -30.99182271 30.6711662 -27.21826172 26.84106445 C-23.57871632 23.14732799 -19.92721247 19.4658187 -16.2669754 15.79258919 C-14.87030399 14.38665483 -13.47805248 12.97631582 -12.09026337 11.56161308 C-10.1506756 9.58590882 -8.1961828 7.62623048 -6.23730469 5.66967773 C-5.66258926 5.07698593 -5.08787384 4.48429413 -4.4957428 3.87364197 C-2.8727417 2.27146912 -2.8727417 2.27146912 0 0 Z M2.93359375 39.96875 C2.10988281 40.8040625 1.28617188 41.639375 0.4375 42.5 C-0.38878906 43.3353125 -1.21507812 44.170625 -2.06640625 45.03125 C-3.02353516 46.00578125 -3.02353516 46.00578125 -4 47 C-0.91052982 51.22329051 2.49960333 54.1864716 6.625 57.3125 C7.87972555 58.27106393 9.13362677 59.2307078 10.38671875 60.19140625 C11.0007959 60.6620752 11.61487305 61.13274414 12.24755859 61.61767578 C14.72351702 63.57070958 17.06350738 65.67503564 19.4375 67.75 C22.68508864 70.34700438 23.59812693 70.96759088 27.875 71.3125 C31.5805252 69.75617941 33.0758552 68.5275988 35 65 C35.11263318 62.54533185 35.11263318 62.54533185 34 60 C31.9687778 58.09071061 30.04992449 56.5019737 27.8125 54.875 C26.5438992 53.91846143 25.27568179 52.96141421 24.0078125 52.00390625 C23.02216309 51.26938232 23.02216309 51.26938232 22.01660156 50.52001953 C18.06819352 47.54389502 14.22270921 44.43491374 10.35668945 41.35302734 C6.64636695 37.68374681 6.64636695 37.68374681 2.93359375 39.96875 Z " fill="#000000" transform="translate(624,403)"/>
<path d="M0 0 C11.26471417 7.90818534 15.46465118 25.95699564 17.67919922 38.58642578 C24.84447611 82.14112828 24.84447611 82.14112828 13.68359375 98.27734375 C10.0427339 102.66203519 5.84645733 106.54945202 0.23046875 108.02734375 C-1.43601666 108.05192318 -3.10309448 108.05502542 -4.76953125 108.02734375 C-5.44254308 103.29871076 -6.0843889 98.56724311 -6.69824219 93.83056641 C-6.91116415 92.22135529 -7.13242349 90.61322376 -7.36230469 89.00634766 C-7.69215945 86.69019355 -7.99138914 84.37175441 -8.28515625 82.05078125 C-8.39329651 81.33804047 -8.50143677 80.62529968 -8.612854 79.89096069 C-9.238819 74.59378481 -7.98793284 72.15810136 -4.76953125 68.02734375 C-2.1162791 60.06758731 -3.6109163 51.43619726 -5.58203125 43.46484375 C-5.74727295 42.78655518 -5.91251465 42.1082666 -6.08276367 41.40942383 C-7.058757 37.74382255 -8.04089761 34.72848486 -10.76953125 32.02734375 C-11.75953125 32.02734375 -12.74953125 32.02734375 -13.76953125 32.02734375 C-16.67133095 37.83094315 -14.82142078 46.89965075 -14.26953125 53.21484375 C-13.72568743 60.21387732 -13.62154367 67.19595555 -13.58203125 74.21484375 C-13.56914063 75.30756592 -13.55625 76.40028809 -13.54296875 77.52612305 C-13.53064849 87.71882465 -13.80798561 99.75285608 -21.2578125 107.59375 C-26.44494808 112.11157776 -30.93235226 112.45565597 -37.5703125 112.3515625 C-43.95144581 111.70487866 -48.46486923 109.36492952 -52.95703125 104.80859375 C-68.44224869 85.33475969 -71.84722494 52.93578026 -69.4609375 28.921875 C-68.15057119 19.77250316 -65.59969249 11.56054146 -58.76953125 5.02734375 C-54.09238936 2.15261264 -50.32291712 0.02734375 -44.76953125 0.02734375 C-44.19456046 4.04678718 -43.6250889 8.06696883 -43.06054688 12.08789062 C-42.86802111 13.45366063 -42.67403354 14.81922544 -42.47851562 16.18457031 C-42.19660855 18.15504321 -41.92051483 20.12634499 -41.64453125 22.09765625 C-41.47695312 23.28117676 -41.309375 24.46469727 -41.13671875 25.68408203 C-40.79096959 28.83214656 -40.70213181 31.86378231 -40.76953125 35.02734375 C-41.42953125 35.02734375 -42.08953125 35.02734375 -42.76953125 35.02734375 C-47.33894693 45.7667614 -46.38237364 58.14103517 -42.5859375 69.03515625 C-41.52984015 71.61223591 -40.52524217 73.85026221 -38.76953125 76.02734375 C-36.71948045 76.66899617 -36.71948045 76.66899617 -34.76953125 77.02734375 C-34.62365071 63.17288046 -34.62365071 63.17288046 -35.26953125 49.33984375 C-38.00820899 12.74475853 -38.00820899 12.74475853 -27.33203125 0.15234375 C-19.0858448 -6.68595721 -8.80337798 -4.83894286 0 0 Z " fill="#000000" transform="translate(117.76953125,126.97265625)"/>
<path d="M0 0 C3.44114945 2.548817 6.72949304 5.23747754 10 8 C10.93779297 8.71929687 10.93779297 8.71929687 11.89453125 9.453125 C21.08433463 16.67220305 27.78758141 27.10893036 29.375 38.75 C29.92837727 50.92429993 24.61896212 59.73438593 16.68554688 68.44287109 C5.70197978 80.33669942 -5.48593148 88.82220482 -22.1875 89.5 C-42.18238701 88.99711049 -57.42063502 77.55915759 -71 64 C-71.70125 63.31035156 -72.4025 62.62070312 -73.125 61.91015625 C-80.21602619 54.43707046 -84.45321837 44.677384 -84.27734375 34.30078125 C-82.49432818 19.50928588 -71.70216953 8.36439834 -61 -1 C-41.73611346 -15.96025231 -19.54409666 -13.19895843 0 0 Z M-47.87109375 29.44921875 C-50.46496706 33.0124288 -50.4863816 35.62256562 -50 40 C-46.29322295 48.47697373 -38.65910426 54.38745112 -30.40234375 58.19921875 C-25.23945745 59.92018085 -21.32914258 59.55963898 -16.4375 57.5 C-11.20974031 54.11874259 -7.27396237 49.40092909 -4.375 43.9375 C-3.74369846 38.99230462 -5.67525113 35.88465654 -8.4140625 31.98828125 C-13.32508093 25.87860193 -19.54235699 21.485881 -27 19 C-36.54463651 18.029359 -41.99307841 22.2258266 -47.87109375 29.44921875 Z " fill="#000000" transform="translate(484,286)"/>
<path d="M0 0 C0.50832642 3.83227646 1.00514174 7.66596304 1.5 11.5 C1.64308594 12.57765625 1.78617187 13.6553125 1.93359375 14.765625 C2.67485986 20.55456034 3.27798191 26.16237985 3 32 C1.26171166 33.73828834 -1.1947801 33.4797987 -3.56640625 33.75390625 C-4.69111328 33.88603516 -5.81582031 34.01816406 -6.97460938 34.15429688 C-8.15861328 34.28900391 -9.34261719 34.42371094 -10.5625 34.5625 C-12.34430664 34.77036133 -12.34430664 34.77036133 -14.16210938 34.98242188 C-17.10764722 35.32547648 -20.05359533 35.66448547 -23 36 C-22.38643346 46.35995318 -21.26984251 56.58823967 -19.9375 66.875 C-19.74899761 68.35281981 -19.56084482 69.83068426 -19.37304688 71.30859375 C-18.92000954 74.87301968 -18.45988513 78.43642497 -18 82 C-9.09 81.01 -0.18 80.02 9 79 C10.22832621 85.14163107 11.35689807 91.01220436 12.125 97.1875 C12.21136719 97.84685547 12.29773438 98.50621094 12.38671875 99.18554688 C12.91973838 103.47931611 13.1648652 107.67503636 13 112 C11.07510689 113.92489311 7.62431496 113.63609013 4.98925781 113.93969727 C4.25587189 114.02762543 3.52248596 114.11555359 2.76687622 114.20614624 C0.3294491 114.49720343 -2.10867173 114.78192976 -4.546875 115.06640625 C-6.23744141 115.2664637 -7.92797242 115.46682056 -9.61846924 115.66746521 C-13.16915756 116.08793488 -16.72018305 116.50539463 -20.27148438 116.9206543 C-24.81946964 117.4526085 -29.36666937 117.99095492 -33.9136467 118.53144932 C-37.40840689 118.94631881 -40.90350597 119.35827178 -44.39871979 119.76930046 C-46.07491496 119.96667527 -47.75101769 120.16483688 -49.42702484 120.36380196 C-51.77491571 120.64198281 -54.1232211 120.91635622 -56.47167969 121.18969727 C-57.16278839 121.27228287 -57.85389709 121.35486847 -58.56594849 121.43995667 C-62.06365056 121.84283392 -65.47898006 122.08786401 -69 122 C-70.3609481 115.97708076 -71.3421118 109.93352063 -72.125 103.8125 C-72.21249512 103.14798828 -72.29999023 102.48347656 -72.39013672 101.79882812 C-72.9275496 97.44329675 -73 93.44111829 -73 89 C-64.09 87.68 -55.18 86.36 -46 85 C-46.3609375 82.18210937 -46.721875 79.36421875 -47.09375 76.4609375 C-47.4421406 73.72065314 -47.7892468 70.98020892 -48.13623047 68.23974609 C-48.37740114 66.34048662 -48.61989926 64.4413952 -48.86376953 62.54248047 C-49.21478806 59.80740142 -49.56097228 57.07174646 -49.90625 54.3359375 C-50.0156189 53.49195404 -50.12498779 52.64797058 -50.2376709 51.77841187 C-50.77447158 47.48643656 -51.12267489 43.33655752 -51 39 C-51.63502441 39.09087891 -52.27004883 39.18175781 -52.92431641 39.27539062 C-55.82395217 39.68788668 -58.72444842 40.09399593 -61.625 40.5 C-62.62402344 40.64308594 -63.62304688 40.78617187 -64.65234375 40.93359375 C-69.46944557 41.60352182 -74.12196787 42.19978289 -79 42 C-80.27634079 35.59113988 -81.29844651 29.16791936 -82.125 22.6875 C-82.21249512 22.01847656 -82.29999023 21.34945313 -82.39013672 20.66015625 C-82.87415801 16.7490305 -83.08550745 12.9394502 -83 9 C-65.26423221 6.53952113 -47.50414697 4.27585173 -29.73065186 2.10601807 C-27.44964434 1.8267318 -25.1689215 1.54511073 -22.88848877 1.26116943 C-19.65168875 0.85889746 -16.41393558 0.46541937 -13.17578125 0.07421875 C-12.1926445 -0.04950607 -11.20950775 -0.1732309 -10.19657898 -0.30070496 C-9.291642 -0.40812515 -8.38670502 -0.51554535 -7.4543457 -0.6262207 C-6.66324905 -0.72296585 -5.8721524 -0.819711 -5.05708313 -0.91938782 C-3 -1 -3 -1 0 0 Z " fill="#000000" transform="translate(149,291)"/>
<path d="M0 0 C2.20156045 0.90494762 3.75615656 2.02693711 5.59535217 3.53860474 C6.28177795 4.09934692 6.96820374 4.66008911 7.6754303 5.23782349 C8.38248108 5.82692505 9.08953186 6.41602661 9.81800842 7.02297974 C10.52119202 7.59661255 11.22437561 8.17024536 11.9488678 8.76126099 C15.79828501 11.92882266 19.3785895 15.21770905 22.88050842 18.77297974 C22.46121567 19.18783127 22.04192291 19.6026828 21.60992432 20.03010559 C17.24018495 24.3555392 12.87754821 28.68804327 8.51893616 33.02468872 C6.89216133 34.64141673 5.26359454 36.25634375 3.63319397 37.86941528 C1.28769645 40.19060713 -1.05124425 42.51823586 -3.38902283 44.84719849 C-4.11724747 45.56510056 -4.84547211 46.28300262 -5.59576416 47.0226593 C-11.82582158 53.10293287 -11.82582158 53.10293287 -14.55699158 61.14797974 C-13.70695405 68.19114784 -10.58452347 71.62905288 -5.30699158 76.02297974 C0.35119416 80.29768521 5.467305 83.53267226 12.80529785 83.09591675 C20.00419491 81.97564956 25.16827152 75.88395244 30.00160217 70.94485474 C30.74636307 70.195849 31.49112396 69.44684326 32.25845337 68.67514038 C34.61881889 66.29807843 36.96849572 63.91076439 39.31800842 61.52297974 C40.92343185 59.90249788 42.52954466 58.28269869 44.1363678 56.66360474 C48.05909432 52.70792889 51.97311467 48.74379882 55.88050842 44.77297974 C57.13540352 45.71260603 58.3900804 46.65252377 59.64466858 47.59255981 C60.34339081 48.11594437 61.04211304 48.63932892 61.76200867 49.17857361 C64.94909082 51.57720656 68.1086107 54.00946463 71.25550842 56.46047974 C71.87039124 56.93292114 72.48527405 57.40536255 73.11878967 57.89212036 C75.88331307 60.04869059 77.91965008 61.83169222 79.88050842 64.77297974 C74.38141414 70.37406542 68.86624652 75.95895547 63.33998108 81.53323364 C61.46333035 83.42764193 59.59286165 85.32761343 57.7247467 87.23049927 C55.02845125 89.97568755 52.31911881 92.70742567 49.60707092 95.43704224 C48.7837326 96.2810257 47.96039429 97.12500916 47.11210632 97.99456787 C37.12460526 107.98584042 26.82093013 113.75684465 12.56800842 114.21047974 C-7.46904458 113.68794877 -22.55734984 102.48581194 -36.11949158 88.77297974 C-36.84136658 88.06141724 -37.56324158 87.34985474 -38.30699158 86.61672974 C-45.37573954 79.18235687 -49.57181042 69.39729158 -49.39683533 59.07376099 C-47.85193325 46.25760148 -39.34614214 36.53318576 -30.58042908 27.76516724 C-29.37551315 26.54883102 -29.37551315 26.54883102 -28.14625549 25.30792236 C-26.46084404 23.61177802 -24.77152429 21.91950901 -23.07847595 20.23098755 C-20.48086891 17.63436221 -17.90541967 15.01701236 -15.33042908 12.39797974 C-13.68589544 10.74824561 -12.04010641 9.09976177 -10.39292908 7.45266724 C-9.62306671 6.66640961 -8.85320435 5.88015198 -8.06001282 5.07006836 C-7.33891327 4.35827423 -6.61781372 3.6464801 -5.87486267 2.91311646 C-5.24454132 2.28074066 -4.61421997 1.64836487 -3.96479797 0.99682617 C-2.11949158 -0.22702026 -2.11949158 -0.22702026 0 0 Z " fill="#000000" transform="translate(536.1194915771484,330.2270202636719)"/>
<path d="M0 0 C2.20156045 0.90494762 3.75615656 2.02693711 5.59535217 3.53860474 C6.28177795 4.09934692 6.96820374 4.66008911 7.6754303 5.23782349 C8.38248108 5.82692505 9.08953186 6.41602661 9.81800842 7.02297974 C10.52119202 7.59661255 11.22437561 8.17024536 11.9488678 8.76126099 C15.79828501 11.92882266 19.3785895 15.21770905 22.88050842 18.77297974 C22.46121567 19.18783127 22.04192291 19.6026828 21.60992432 20.03010559 C17.24018495 24.3555392 12.87754821 28.68804327 8.51893616 33.02468872 C6.89216133 34.64141673 5.26359454 36.25634375 3.63319397 37.86941528 C1.28769645 40.19060713 -1.05124425 42.51823586 -3.38902283 44.84719849 C-4.11724747 45.56510056 -4.84547211 46.28300262 -5.59576416 47.0226593 C-11.82582158 53.10293287 -11.82582158 53.10293287 -14.55699158 61.14797974 C-13.70695405 68.19114784 -10.58452347 71.62905288 -5.30699158 76.02297974 C0.35119416 80.29768521 5.467305 83.53267226 12.80529785 83.09591675 C20.00419491 81.97564956 25.16827152 75.88395244 30.00160217 70.94485474 C30.74636307 70.195849 31.49112396 69.44684326 32.25845337 68.67514038 C34.61881889 66.29807843 36.96849572 63.91076439 39.31800842 61.52297974 C40.92343185 59.90249788 42.52954466 58.28269869 44.1363678 56.66360474 C48.05909432 52.70792889 51.97311467 48.74379882 55.88050842 44.77297974 C57.13540352 45.71260603 58.3900804 46.65252377 59.64466858 47.59255981 C60.34339081 48.11594437 61.04211304 48.63932892 61.76200867 49.17857361 C64.94909082 51.57720656 68.1086107 54.00946463 71.25550842 56.46047974 C71.87039124 56.93292114 72.48527405 57.40536255 73.11878967 57.89212036 C75.88331307 60.04869059 77.91965008 61.83169222 79.88050842 64.77297974 C74.38141414 70.37406542 68.86624652 75.95895547 63.33998108 81.53323364 C61.46333035 83.42764193 59.59286165 85.32761343 57.7247467 87.23049927 C55.02845125 89.97568755 52.31911881 92.70742567 49.60707092 95.43704224 C48.7837326 96.2810257 47.96039429 97.12500916 47.11210632 97.99456787 C37.12460526 107.98584042 26.82093013 113.75684465 12.56800842 114.21047974 C-7.46904458 113.68794877 -22.55734984 102.48581194 -36.11949158 88.77297974 C-36.84136658 88.06141724 -37.56324158 87.34985474 -38.30699158 86.61672974 C-45.37573954 79.18235687 -49.57181042 69.39729158 -49.39683533 59.07376099 C-47.85193325 46.25760148 -39.34614214 36.53318576 -30.58042908 27.76516724 C-29.37551315 26.54883102 -29.37551315 26.54883102 -28.14625549 25.30792236 C-26.46084404 23.61177802 -24.77152429 21.91950901 -23.07847595 20.23098755 C-20.48086891 17.63436221 -17.90541967 15.01701236 -15.33042908 12.39797974 C-13.68589544 10.74824561 -12.04010641 9.09976177 -10.39292908 7.45266724 C-9.62306671 6.66640961 -8.85320435 5.88015198 -8.06001282 5.07006836 C-7.33891327 4.35827423 -6.61781372 3.6464801 -5.87486267 2.91311646 C-5.24454132 2.28074066 -4.61421997 1.64836487 -3.96479797 0.99682617 C-2.11949158 -0.22702026 -2.11949158 -0.22702026 0 0 Z " fill="#000000" transform="translate(283.11949157714844,128.22702026367188)"/>
<path d="M0 0 C3.28365038 0.44712183 5.11394792 1.64799485 7.6171875 3.7734375 C8.64017944 4.63110718 8.64017944 4.63110718 9.68383789 5.50610352 C10.76846313 6.43120728 10.76846313 6.43120728 11.875 7.375 C13.41167701 8.66405305 14.9494518 9.95179848 16.48828125 11.23828125 C17.63417725 12.19855225 17.63417725 12.19855225 18.80322266 13.17822266 C21.84378093 15.69974364 24.94346818 18.13920342 28.0625 20.5625 C33.09257695 24.48089376 38.0604114 28.46814137 43 32.5 C52.84676994 40.53104506 62.78461753 48.44061697 73 56 C72.13372181 61.83151111 67.1762507 65.33610794 63.1875 69.3125 C62.36701172 70.16134766 61.54652344 71.01019531 60.70117188 71.88476562 C59.50911133 73.08069336 59.50911133 73.08069336 58.29296875 74.30078125 C57.5661792 75.03466064 56.83938965 75.76854004 56.09057617 76.5246582 C54 78 54 78 51.95776367 77.90454102 C49.78834309 76.90220865 48.20514992 75.77386692 46.3828125 74.2265625 C45.70065674 73.65462158 45.01850098 73.08268066 44.31567383 72.4934082 C43.59275146 71.8768335 42.8698291 71.26025879 42.125 70.625 C40.59089962 69.33858353 39.05572889 68.05344251 37.51953125 66.76953125 C36.75592285 66.12967285 35.99231445 65.48981445 35.20556641 64.83056641 C32.11802334 62.26798085 28.97615247 59.78013076 25.8125 57.3125 C25.25755859 56.8791333 24.70261719 56.4457666 24.13085938 55.99926758 C23.00873639 55.123953 21.88617672 54.24919795 20.76318359 53.375 C17.5429502 50.86373519 14.33491191 48.33693435 11.125 45.8125 C9.94015274 44.88144861 8.75526165 43.95045298 7.5703125 43.01953125 C6.72210938 42.35308594 5.87390625 41.68664062 5 41 C2.11562221 42.29299694 0.12780579 43.65941363 -2 46 C3.5668932 51.13980351 9.35406093 55.91142428 15.32788086 60.56176758 C20.15588056 64.32407229 24.9335277 68.14459496 29.6875 72 C30.37078369 72.55196045 31.05406738 73.1039209 31.75805664 73.67260742 C32.39864014 74.19314697 33.03922363 74.71368652 33.69921875 75.25 C34.26471436 75.70890625 34.83020996 76.1678125 35.4128418 76.640625 C37.02588859 78.02217316 38.51857826 79.47915941 40 81 C39.43152344 81.556875 38.86304688 82.11375 38.27734375 82.6875 C33.82589604 87.08692746 29.56997209 91.52558967 25.60546875 96.37109375 C23.86916937 98.13274057 22.25830883 99.02515519 20 100 C12.56172098 94.20046683 5.17472024 88.34829907 -2.125 82.375 C-8.61996835 77.06479695 -15.23336131 71.95963858 -22 67 C-28.03331362 71.98404168 -33.5184171 77.41915303 -39 83 C-44.17590459 79.1698306 -49.28969765 75.26186299 -54.375 71.3125 C-54.99391113 70.83707764 -55.61282227 70.36165527 -56.25048828 69.87182617 C-59.01063286 67.71790999 -61.04200398 65.93699403 -63 63 C-54.86960232 54.75392593 -46.72587921 46.52127391 -38.56470871 38.30564785 C-34.77586283 34.49067051 -30.99182271 30.6711662 -27.21826172 26.84106445 C-23.57871632 23.14732799 -19.92721247 19.4658187 -16.2669754 15.79258919 C-14.87030399 14.38665483 -13.47805248 12.97631582 -12.09026337 11.56161308 C-10.1506756 9.58590882 -8.1961828 7.62623048 -6.23730469 5.66967773 C-5.66258926 5.07698593 -5.08787384 4.48429413 -4.4957428 3.87364197 C-2.8727417 2.27146912 -2.8727417 2.27146912 0 0 Z " fill="#000000" transform="translate(372,201)"/>
<path d="M0 0 C0.57658674 4.12504872 1.14596187 8.25101303 1.70898438 12.37792969 C1.90106702 13.77858603 2.09503873 15.17898478 2.29101562 16.57910156 C2.91563121 21.04701511 3.48655071 25.51760672 4 30 C4.1036084 30.86238281 4.2072168 31.72476563 4.31396484 32.61328125 C4.4609375 34.71875 4.4609375 34.71875 4 38 C1.6640625 40.3125 1.6640625 40.3125 -1.375 42 C-2.37273437 42.5775 -3.37046875 43.155 -4.3984375 43.75 C-7 45 -7 45 -9 45 C-8.81171631 45.97682739 -8.81171631 45.97682739 -8.61962891 46.97338867 C-7.28763987 54.06205606 -6.25675763 61.1549674 -5.375 68.3125 C-5.17390625 69.87967773 -5.17390625 69.87967773 -4.96875 71.47851562 C-4.36231569 76.34546034 -3.81384838 81.08390492 -4 86 C-3.12988281 86.18175781 -3.12988281 86.18175781 -2.2421875 86.3671875 C-1.46101563 86.53476562 -0.67984375 86.70234375 0.125 86.875 C0.89070313 87.03742188 1.65640625 87.19984375 2.4453125 87.3671875 C5.357453 88.0885434 8.15888383 89.03928563 11 90 C11.57682702 93.98256105 12.14618681 97.96611513 12.70898438 101.95068359 C12.90100126 103.30285621 13.09497029 104.65475323 13.29101562 106.00634766 C14.31030119 113.04253834 15.2904876 119.8830538 15 127 C11.56503162 126.39144289 8.47045729 125.51872796 5.22680664 124.2409668 C3.83958908 123.6979744 3.83958908 123.6979744 2.42434692 123.14401245 C0.93232254 122.55258957 0.93232254 122.55258957 -0.58984375 121.94921875 C-1.63496124 121.53866241 -2.68007874 121.12810608 -3.75686646 120.70510864 C-7.152058 119.37004655 -10.54482211 118.02893554 -13.9375 116.6875 C-16.25762639 115.77341578 -18.57785775 114.85959793 -20.89819336 113.94604492 C-69.0713903 94.96430485 -69.0713903 94.96430485 -73 93 C-73.59423828 90.06005859 -73.59423828 90.06005859 -74.0703125 86.1484375 C-74.15626678 85.45618073 -74.24222107 84.76392395 -74.33078003 84.0506897 C-74.51149638 82.58005745 -74.68772605 81.10886812 -74.85986328 79.63720703 C-75.12161274 77.40390088 -75.39742615 75.17269681 -75.67578125 72.94140625 C-77.27802376 59.76698154 -77.27802376 59.76698154 -77 54 C-75.375 51.953125 -75.375 51.953125 -73 50.25 C-72.08347656 49.5796875 -71.16695313 48.909375 -70.22265625 48.21875 C-69.15917969 47.4865625 -68.09570312 46.754375 -67 46 C-65.79028233 45.15636793 -64.58065085 44.31261227 -63.37109375 43.46875 C-60.68162956 41.60388728 -57.98081068 39.75671982 -55.2734375 37.91796875 C-51.00309745 35.01276944 -46.77792939 32.0466468 -42.5625 29.0625 C-41.85867187 28.56468018 -41.15484375 28.06686035 -40.4296875 27.55395508 C-38.28586791 26.03680173 -36.14280198 24.5185902 -34 23 C-25.36058033 16.87729794 -16.71151894 10.76988422 -8 4.75 C-7.31091553 4.27167725 -6.62183105 3.79335449 -5.91186523 3.30053711 C-1.11748458 0 -1.11748458 0 0 0 Z M-34.3515625 60.625 C-35.62773437 61.43710937 -35.62773437 61.43710937 -36.9296875 62.265625 C-37.81914062 62.83796875 -38.70859375 63.4103125 -39.625 64 C-40.5221875 64.57234375 -41.419375 65.1446875 -42.34375 65.734375 C-44.56509735 67.15225629 -46.78368142 68.57427582 -49 70 C-46.45079818 71.69946788 -44.67900436 72.56531331 -41.83984375 73.5078125 C-40.6497168 73.90419922 -40.6497168 73.90419922 -39.43554688 74.30859375 C-38.61119141 74.57800781 -37.78683594 74.84742188 -36.9375 75.125 C-36.10927734 75.40214844 -35.28105469 75.67929687 -34.42773438 75.96484375 C-30.29756813 77.45091568 -30.29756813 77.45091568 -26 78 C-26.66 71.4 -27.32 64.8 -28 58 C-30.75300763 58 -32.03791653 59.14426658 -34.3515625 60.625 Z " fill="#000000" transform="translate(175,500)"/>
<path d="M0 0 C1.92696618 1.92696618 1.6519025 5.34629398 1.97265625 7.921875 C2.06002548 8.61887512 2.14739471 9.31587524 2.2374115 10.03399658 C2.42182244 11.5132928 2.60409729 12.99285659 2.78442383 14.47265625 C3.05972682 16.72728863 3.34279291 18.98084379 3.62695312 21.234375 C5.12153267 33.29018497 5.12153267 33.29018497 5 38 C5.93283813 37.82911865 5.93283813 37.82911865 6.88452148 37.65478516 C16.3010638 36.00391293 25.76820218 34.85492044 35.25756836 33.71289062 C38.08815411 33.37190963 40.91811875 33.02607987 43.74804688 32.6796875 C45.55204894 32.46065403 47.35608421 32.24189389 49.16015625 32.0234375 C50.00385269 31.92034271 50.84754913 31.81724792 51.71681213 31.71102905 C54.82966484 31.33819799 57.86173554 31 61 31 C62.32 41.89 63.64 52.78 65 64 C58.2831115 65.3433777 51.75242143 66.50369754 44.9765625 67.2890625 C43.61366592 67.45128799 43.61366592 67.45128799 42.22323608 67.61679077 C40.32271502 67.84214116 38.42196422 68.06556189 36.52099609 68.28710938 C33.61105513 68.62662702 30.70198988 68.9730105 27.79296875 69.3203125 C25.93754745 69.53946462 24.08208025 69.75822855 22.2265625 69.9765625 C20.92653793 70.13120468 20.92653793 70.13120468 19.60025024 70.28897095 C18.38781143 70.42944351 18.38781143 70.42944351 17.15087891 70.57275391 C16.44379791 70.65554596 15.73671692 70.73833801 15.00820923 70.82363892 C13.01229205 70.99892051 11.00359902 71 9 71 C9.12552246 71.62946533 9.25104492 72.25893066 9.38037109 72.9074707 C10.85965746 80.6336398 11.79873088 88.36745298 12.625 96.1875 C12.82609375 98.0447168 12.82609375 98.0447168 13.03125 99.93945312 C13.35771694 102.95927231 13.68056286 105.97943053 14 109 C10.43826523 109.5055539 6.87550181 110.00346114 3.3125 110.5 C2.30509766 110.64308594 1.29769531 110.78617188 0.25976562 110.93359375 C-0.71669922 111.06894531 -1.69316406 111.20429687 -2.69921875 111.34375 C-4.04246216 111.53227539 -4.04246216 111.53227539 -5.4128418 111.72460938 C-7.96530164 111.99630653 -10.43556927 112.01887641 -13 112 C-15.10820193 101.67243208 -16.30988136 91.22620825 -17.6015625 80.7734375 C-17.84521201 78.81530351 -18.08897829 76.85718405 -18.33285522 74.89907837 C-18.84095173 70.81286936 -19.34655845 66.72636126 -19.85058594 62.63964844 C-20.49475249 57.41958679 -21.14682026 52.20054586 -21.80095863 46.98172569 C-22.30576533 42.94487877 -22.80552492 38.90741866 -23.30387497 34.86977005 C-23.54214154 32.94555701 -23.78214743 31.02155847 -24.02397537 29.09778976 C-24.36189546 26.40484243 -24.69277105 23.71111502 -25.02197266 21.01708984 C-25.12168869 20.23451309 -25.22140472 19.45193634 -25.32414246 18.64564514 C-25.95560979 13.39663278 -26.08210415 8.28733507 -26 3 C-22.60487849 2.49504165 -19.20888717 1.99637785 -15.8125 1.5 C-14.37293945 1.28537109 -14.37293945 1.28537109 -12.90429688 1.06640625 C-11.50727539 0.86337891 -11.50727539 0.86337891 -10.08203125 0.65625 C-9.22843018 0.53056641 -8.3748291 0.40488281 -7.49536133 0.27539062 C-4.96390853 -0.00398309 -2.54429134 -0.11732241 0 0 Z " fill="#000000" transform="translate(108,420)"/>
<path d="M0 0 C1.3609481 6.02291924 2.3421118 12.06647937 3.125 18.1875 C3.21249512 18.85201172 3.29999023 19.51652344 3.39013672 20.20117188 C3.91931417 24.48995813 4.16466126 28.68038628 4 33 C2.07510689 34.92489311 -1.37568504 34.63609013 -4.01074219 34.93969727 C-4.74412811 35.02762543 -5.47751404 35.11555359 -6.23312378 35.20614624 C-8.6705509 35.49720343 -11.10867173 35.78192976 -13.546875 36.06640625 C-15.23744141 36.2664637 -16.92797242 36.46682056 -18.61846924 36.66746521 C-22.16915756 37.08793488 -25.72018305 37.50539463 -29.27148438 37.9206543 C-33.81946964 38.4526085 -38.36666937 38.99095492 -42.9136467 39.53144932 C-46.40840689 39.94631881 -49.90350597 40.35827178 -53.39871979 40.76930046 C-55.07491496 40.96667527 -56.75101769 41.16483688 -58.42702484 41.36380196 C-60.77491571 41.64198281 -63.1232211 41.91635622 -65.47167969 42.18969727 C-66.16278839 42.27228287 -66.85389709 42.35486847 -67.56594849 42.43995667 C-71.06365056 42.84283392 -74.47898006 43.08786401 -78 43 C-79.3609481 36.97708076 -80.3421118 30.93352063 -81.125 24.8125 C-81.21249512 24.14798828 -81.29999023 23.48347656 -81.39013672 22.79882812 C-81.91944619 18.50897187 -82.07843766 14.31967409 -82 10 C-63.10745837 7.37904217 -44.18737845 5.02172963 -25.25 2.75 C-23.54870941 2.5453714 -23.54870941 2.5453714 -21.81304932 2.33660889 C-18.56825903 1.94680217 -15.32324726 1.55890735 -12.078125 1.171875 C-11.08982697 1.05331146 -10.10152893 0.93474792 -9.08328247 0.81259155 C-8.17826996 0.70524689 -7.27325745 0.59790222 -6.34082031 0.48730469 C-5.54750305 0.39278015 -4.75418579 0.29825562 -3.93682861 0.2008667 C-2 0 -2 0 0 0 Z " fill="#000000" transform="translate(142,240)"/>
</svg>
